<svg width="20" height="20" viewBox="0 0 20 20" fill="none" xmlns="http://www.w3.org/2000/svg">
<mask id="mask0_418_1349" style="mask-type:luminance" maskUnits="userSpaceOnUse" x="11" y="1" width="9" height="8">
<path fill-rule="evenodd" clip-rule="evenodd" d="M11.9629 1.66675H19.0787V8.77743H11.9629V1.66675Z" fill="white"/>
</mask>
<g mask="url(#mask0_418_1349)">
<path fill-rule="evenodd" clip-rule="evenodd" d="M18.4535 8.77743C18.1393 8.77743 17.8693 8.54159 17.8335 8.22243C17.5176 5.40909 15.3326 3.22576 12.5185 2.91326C12.176 2.87493 11.9285 2.56659 11.9668 2.22326C12.0043 1.88076 12.3101 1.62826 12.6568 1.67159C16.0551 2.04909 18.6943 4.68493 19.0751 8.08243C19.1135 8.42576 18.8668 8.73493 18.5243 8.77326C18.501 8.77576 18.4768 8.77743 18.4535 8.77743" fill="#333333" fill-opacity="0.4"/>
</g>
<path fill-rule="evenodd" clip-rule="evenodd" d="M15.5037 8.78647C15.2103 8.78647 14.9495 8.5798 14.8912 8.28147C14.6512 7.04814 13.7003 6.0973 12.4687 5.85813C12.1295 5.7923 11.9087 5.4648 11.9745 5.12563C12.0403 4.78647 12.3737 4.5648 12.707 4.63147C14.4412 4.96813 15.7803 6.30647 16.1178 8.04147C16.1837 8.38147 15.9628 8.70897 15.6245 8.7748C15.5837 8.7823 15.5437 8.78647 15.5037 8.78647" fill="#333333" fill-opacity="0.4"/>
<mask id="mask1_418_1349" style="mask-type:luminance" maskUnits="userSpaceOnUse" x="1" y="1" width="18" height="18">
<path fill-rule="evenodd" clip-rule="evenodd" d="M1.66797 1.6665H18.7515V18.7503H1.66797V1.6665Z" fill="white"/>
</mask>
<g mask="url(#mask1_418_1349)">
<path fill-rule="evenodd" clip-rule="evenodd" d="M3.63387 4.21779C3.63554 4.21779 3.59387 4.26112 3.54137 4.31279C3.33971 4.50862 2.92221 4.91612 2.91804 5.76862C2.91137 6.96112 3.69554 9.17529 7.47137 12.9503C11.2289 16.707 13.4397 17.5003 14.6355 17.5003H14.653C15.5055 17.4953 15.9122 17.0778 16.108 16.877C16.1672 16.8161 16.2155 16.7703 16.2497 16.7428C17.0805 15.907 17.5055 15.2861 17.5014 14.887C17.4964 14.4803 16.9905 14.0003 16.2914 13.3345C16.0689 13.1236 15.8272 12.8928 15.5722 12.6378C14.9105 11.9786 14.5847 12.0911 13.8639 12.3445C12.868 12.6936 11.5039 13.172 9.37804 11.0445C7.25137 8.91862 7.72804 7.55445 8.07554 6.55779C8.32721 5.83779 8.44221 5.51029 7.78137 4.84862C7.52304 4.59029 7.29054 4.34529 7.07637 4.12029C6.41471 3.42529 5.93721 2.92279 5.53304 2.91695H5.52637C5.12721 2.91695 4.50721 3.34362 3.62971 4.22112C3.63221 4.21862 3.63304 4.21779 3.63387 4.21779V4.21779ZM14.6355 18.7503C12.5589 18.7503 9.85137 17.097 6.58804 13.8345C3.31137 10.5586 1.65554 7.84279 1.66804 5.76195C1.67554 4.38695 2.39637 3.68279 2.66721 3.41862C2.68137 3.40112 2.72971 3.35362 2.74637 3.33695C3.94221 2.14112 4.76387 1.64945 5.54887 1.66695C6.47971 1.67945 7.14304 2.37695 7.98221 3.25945C8.18971 3.47695 8.41387 3.71445 8.66471 3.96445C9.88054 5.18112 9.53471 6.17362 9.25554 6.97029C8.95221 7.83945 8.68971 8.58945 10.2614 10.1611C11.833 11.7328 12.5822 11.4703 13.4505 11.1645C14.248 10.8861 15.238 10.5378 16.4564 11.7545C16.7039 12.002 16.9372 12.2236 17.1539 12.4295C18.0397 13.2728 18.7397 13.9386 18.7514 14.872C18.7605 15.667 18.2772 16.4786 17.0839 17.672L16.5555 17.3136L17.003 17.7495C16.7389 18.0203 16.0364 18.742 14.6605 18.7503H14.6355Z" fill="#333333" fill-opacity="0.4"/>
</g>
</svg>
