<svg xmlns="http://www.w3.org/2000/svg" width="48" height="48" viewBox="0 0 48 48" fill="none"><g clip-path="url(#clip0_385_2906)"><path d="M39.3048 13.8916L33.2057 25.0732C34.3352 25.0732 35.3517 25.4121 36.2553 25.8638L42.1284 15.134C41.1119 14.9081 40.0954 14.5693 39.3048 13.8916ZM28.8008 26.7674L24.396 23.6049C23.8312 24.5085 23.0406 25.1862 22.1371 25.7509L26.9937 29.2522C27.4455 28.3486 28.0102 27.4451 28.8008 26.7674ZM13.892 24.5085L7.79297 32.3017C8.69653 32.7535 9.6001 33.3182 10.2778 34.1089L16.4898 26.2027C15.4733 25.8638 14.5697 25.2991 13.892 24.5085Z" fill="#737F96"></path><path d="M4.40469 9.48664C4.40469 8.80896 4.96942 8.24423 5.6471 8.24423H36.4812C36.4812 7.22772 36.8201 6.32416 37.2719 5.53354H5.6471C3.38818 5.42059 1.58105 7.22772 1.58105 9.48664V32.7534C2.37167 32.3016 3.38818 31.9628 4.29175 31.9628V9.48664H4.40469ZM43.0321 15.1339V39.1913C43.0321 39.869 42.4674 40.4337 41.7897 40.4337H11.972C11.7462 41.4502 11.2944 42.3538 10.6167 43.1444H41.7897C44.0486 43.1444 45.8557 41.3373 45.8557 39.0784V14.6821C45.0651 15.021 44.1615 15.2469 43.0321 15.1339C43.145 15.2469 43.145 15.1339 43.0321 15.1339ZM43.0321 3.83936C40.3214 3.83936 38.0625 6.09827 38.0625 8.80896C38.0625 11.5197 40.3214 13.7786 43.0321 13.7786C45.7428 13.7786 48.0017 11.5197 48.0017 8.80896C48.0017 6.09827 45.7428 3.83936 43.0321 3.83936ZM43.0321 10.5031C42.1285 10.5031 41.3379 9.71253 41.3379 8.80896C41.3379 7.9054 42.1285 7.11478 43.0321 7.11478C43.9356 7.11478 44.7263 7.9054 44.7263 8.80896C44.7263 9.71253 43.9356 10.5031 43.0321 10.5031Z" fill="#737F96"></path><path d="M33.0931 35.8029C35.8038 35.8029 38.0627 33.544 38.0627 30.8333C38.0627 28.1226 35.8038 25.8637 33.0931 25.8637C30.3824 25.8637 28.1235 28.1226 28.1235 30.8333C28.1235 33.544 30.3824 35.8029 33.0931 35.8029ZM33.0931 29.1391C33.9966 29.1391 34.7872 29.9298 34.7872 30.8333C34.7872 31.7369 33.9966 32.5275 33.0931 32.5275C32.1895 32.5275 31.3989 31.7369 31.3989 30.8333C31.3989 29.9298 32.1895 29.1391 33.0931 29.1391ZM18.8619 16.1504C16.1512 16.1504 13.8923 18.4093 13.8923 21.12C13.8923 23.8307 16.1512 26.0896 18.8619 26.0896C21.5726 26.0896 23.8315 23.8307 23.8315 21.12C23.8315 18.4093 21.5726 16.1504 18.8619 16.1504ZM18.8619 22.7012C17.9583 22.7012 17.1677 21.9106 17.1677 21.0071C17.1677 20.1035 17.9583 19.3129 18.8619 19.3129C19.7655 19.3129 20.5561 20.1035 20.5561 21.0071C20.5561 21.9106 19.7655 22.7012 18.8619 22.7012ZM4.96961 34.3346C2.25891 34.3346 0 36.4806 0 39.1913C0 41.902 2.25891 44.1609 4.96961 44.1609C7.6803 44.1609 9.93921 41.902 9.93921 39.1913C9.93921 36.4806 7.6803 34.3346 4.96961 34.3346ZM4.96961 40.8855C4.06604 40.8855 3.27542 40.0949 3.27542 39.1913C3.27542 38.2877 4.06604 37.4971 4.96961 37.4971C5.87317 37.4971 6.66379 38.2877 6.66379 39.1913C6.66379 40.0949 5.87317 40.8855 4.96961 40.8855Z" fill="#737F96"></path></g><defs><clipPath id="clip0_385_2906"><rect width="48" height="48" fill="white"></rect></clipPath></defs></svg>