<svg xmlns="http://www.w3.org/2000/svg" width="47" height="47" viewBox="0 0 47 47" fill="none"><g clip-path="url(#clip0_385_2871)"><path d="M41.2597 1.03125H5.63155C2.52845 1.03125 0 3.5597 0 6.6628V31.9473C0 35.0504 2.52845 37.5788 5.63155 37.5788H41.2597C44.3628 37.5788 46.8912 35.0504 46.8912 31.9473V6.6628C47.0062 3.5597 44.4777 1.03125 41.2597 1.03125ZM43.7881 31.9473C43.7881 33.3264 42.6389 34.3608 41.3746 34.3608H5.74648C4.36732 34.3608 3.33296 33.2115 3.33296 31.9473V6.6628C3.33296 5.28364 4.48225 4.24928 5.74648 4.24928H41.3746C42.7538 4.24928 43.7881 5.39857 43.7881 6.6628V31.9473ZM39.7656 42.6357H30.8011V41.7163C30.8011 40.9118 30.2265 40.3371 29.422 40.3371H16.5499C15.7453 40.3371 15.1707 40.9118 15.1707 41.7163V42.6357H6.32112C5.40169 42.6357 4.71211 43.3253 4.71211 44.2448C4.71211 45.1642 5.40169 45.8538 6.32112 45.8538H39.7656C40.6851 45.8538 41.3746 45.1642 41.3746 44.2448C41.3746 43.3253 40.6851 42.6357 39.7656 42.6357Z" fill="#737F96"></path><path d="M39.7652 25.3962H32.7545L29.1917 21.8334C30.1112 20.6841 30.6858 19.19 30.6858 17.581C30.6858 17.1213 30.6858 16.6616 30.5709 16.2019C29.8813 17.0064 28.9619 17.4661 27.8126 17.4661H27.4678V17.696C27.4678 19.6498 25.8588 21.3737 23.79 21.3737C21.8362 21.3737 20.1123 19.7647 20.1123 17.696C20.1123 15.7422 21.7213 14.0182 23.79 14.0182H24.1348V13.7883C24.1348 12.6391 24.7095 11.6047 25.514 10.9151C24.9393 10.8002 24.3647 10.6853 23.79 10.6853C22.6407 10.6853 21.4914 11.03 20.4571 11.4898L16.3196 7.3523C15.9748 7.00751 15.63 6.89258 15.1703 6.89258H7.35511C6.5506 6.89258 5.74609 7.58216 5.74609 8.50159C5.74609 9.42103 6.5506 10.2255 7.35511 10.2255H14.3658L17.9286 13.7883C17.239 14.9376 16.7793 16.2019 16.7793 17.581C16.7793 21.3737 19.8824 24.4768 23.6751 24.4768C24.7095 24.4768 25.6289 24.2469 26.5483 23.9021L30.8007 28.1545C31.1455 28.4993 31.4903 28.6143 31.95 28.6143H39.6503C40.5697 28.6143 41.2593 27.9247 41.2593 27.0052C41.2593 26.0858 40.6847 25.3962 39.7652 25.3962Z" fill="#737F96"></path><path d="M7.35511 19.1901H12.6419C13.5613 19.1901 14.2509 18.5005 14.2509 17.5811C14.2509 16.6616 13.5613 15.9721 12.6419 15.9721H7.35511C6.5506 15.9721 5.74609 16.6616 5.74609 17.5811C5.74609 18.5005 6.5506 19.1901 7.35511 19.1901ZM15.1703 25.3963H7.35511C6.43567 25.3963 5.74609 26.0859 5.74609 27.0053C5.74609 27.9247 6.5506 28.6143 7.35511 28.6143H15.1703C16.0898 28.6143 16.7793 27.9247 16.7793 27.0053C16.7793 26.0859 16.0898 25.3963 15.1703 25.3963ZM39.7652 6.54785H32.7545C32.2948 6.54785 31.95 6.66278 31.6052 7.00757L27.6976 10.9152L27.5827 11.0301C26.2035 11.145 25.0543 12.2943 25.0543 13.6735C25.0543 15.1676 26.2036 16.3169 27.6976 16.3169C29.1917 16.3169 30.341 15.1676 30.341 13.6735C30.341 13.4436 30.341 13.0988 30.2261 12.869L33.3292 9.76588H39.6503C40.6847 9.88081 41.3742 9.0763 41.3742 8.15686C41.3742 7.23743 40.6847 6.54785 39.7652 6.54785Z" fill="#737F96"></path></g><defs><clipPath id="clip0_385_2871"><rect width="47" height="47" fill="white"></rect></clipPath></defs></svg>