<svg xmlns="http://www.w3.org/2000/svg" width="47" height="47" viewBox="0 0 47 47" fill="none"><g clip-path="url(#clip0_385_2896)"><path d="M26.9122 41.5564H23.2319V36.1509H27.8323C27.6023 35.1158 27.4873 33.9657 27.4873 32.9307H5.75047C4.25535 32.9307 3.10525 31.6656 3.10525 30.1704V8.31864C3.10525 6.82352 4.25535 5.55842 5.75047 5.55842H39.1032C40.5983 5.55842 41.7484 6.82352 41.7484 8.31864V18.0944C42.7835 18.0944 43.9336 18.2095 44.8537 18.4395V8.20363C44.8537 4.86836 42.3235 2.22314 39.1032 2.22314H5.75047C2.64522 2.22314 0 4.86836 0 8.20363V30.0554C0 33.3907 2.64522 36.0359 5.75047 36.0359H19.8966V41.4414H16.2163C15.2963 41.4414 14.6062 42.1314 14.6062 43.0515C14.6062 43.9716 15.2963 44.6616 16.2163 44.6616H26.7972C27.7173 44.6616 28.4073 43.9716 28.4073 43.0515C28.4073 42.1314 27.8323 41.5564 26.9122 41.5564Z" fill="#737F96"></path><path d="M36.9184 35.4612C33.3531 35.4612 30.3628 32.471 30.3628 28.9057C30.3628 25.3404 33.3531 22.3501 36.9184 22.3501V19.1299C31.5129 19.1299 27.1426 23.5002 27.1426 28.9057C27.1426 34.3111 31.5129 38.6815 36.9184 38.6815C42.3238 38.6815 46.6942 34.3111 46.6942 28.9057H43.4739C43.4739 32.586 40.5987 35.4612 36.9184 35.4612Z" fill="#737F96"></path><path d="M40.1386 18.5544H39.1036V26.4901H47.0392V25.455C47.0392 21.5447 43.934 18.5544 40.1386 18.5544ZM41.2887 24.3049V20.8546C43.0139 21.3147 44.279 22.5798 44.739 24.3049H41.2887ZM32.088 12.919L19.552 23.3848L13.9165 17.8644C13.3414 17.2893 12.4214 17.2893 11.8463 17.8644C11.2713 18.4394 11.2713 19.3595 11.8463 19.9346L18.4019 26.3751C18.6319 26.6051 19.0919 26.8351 19.4369 26.8351C19.782 26.8351 20.127 26.7201 20.357 26.4901L33.9281 15.2192C34.5032 14.7591 34.6182 13.8391 34.1582 13.264C33.6981 12.4589 32.778 12.3439 32.088 12.919Z" fill="#737F96"></path></g><defs><clipPath id="clip0_385_2896"><rect width="47" height="47" fill="white"></rect></clipPath></defs></svg>