<svg xmlns="http://www.w3.org/2000/svg" width="47" height="47" viewBox="0 0 47 47" fill="none"><path d="M6.94751 38.2633H27.0302C26.1617 37.3949 25.4018 36.3094 24.8591 35.2238H6.94751C4.77641 35.2238 3.03954 33.4869 3.03954 31.3158V9.17065C3.03954 6.99956 4.77641 5.26268 6.94751 5.26268H34.7375C36.9086 5.26268 38.6455 6.99956 38.6455 9.17065V21.2202C39.8396 21.763 40.8166 22.4143 41.6851 23.2828V9.17065C41.6851 5.37123 38.6455 2.22314 34.7375 2.22314H6.94751C3.14809 2.22314 0 5.37123 0 9.17065V31.3158C0 35.1153 3.14809 38.2633 6.94751 38.2633ZM36.0402 41.0858C35.4974 41.1943 34.8461 41.3029 34.3033 41.3029C33.652 41.3029 33.0007 41.1943 32.4579 41.0858H1.51977C0.651329 41.0858 0 41.7371 0 42.6055C0 43.474 0.651329 44.1253 1.51977 44.1253H40.1653L37.1258 41.0858H36.0402Z" fill="#737F96"></path><path d="M46.4617 42.1715L41.7939 37.5037C43.4222 35.7668 44.3992 33.4871 44.3992 30.8818C44.3992 25.4541 40.057 21.1119 34.6293 21.1119C29.2015 21.1119 24.8593 25.4541 24.8593 30.8818C24.8593 36.3096 29.2015 40.6518 34.6293 40.6518C36.3661 40.6518 37.9945 40.2175 39.4057 39.4577L44.2906 44.3426C44.6163 44.6683 44.942 44.7768 45.3762 44.7768C45.8104 44.7768 46.1361 44.6683 46.4617 44.3426C47.1131 43.7999 47.1131 42.8229 46.4617 42.1715ZM27.8989 30.8818C27.8989 27.191 30.9384 24.1514 34.6293 24.1514C38.3201 24.1514 41.3597 27.191 41.3597 30.8818C41.3597 34.5727 38.3201 37.6122 34.6293 37.6122C30.9384 37.6122 27.8989 34.5727 27.8989 30.8818ZM11.9413 17.8552C14.5466 17.8552 16.6092 15.7927 16.6092 13.1874C16.6092 10.5821 14.5466 8.51953 11.9413 8.51953C9.33598 8.51953 7.27344 10.5821 7.27344 13.1874C7.27344 15.7927 9.33598 17.8552 11.9413 17.8552ZM11.9413 10.6906C13.3525 10.6906 14.5466 11.8847 14.5466 13.2959C14.5466 14.7072 13.3525 15.9013 11.9413 15.9013C10.5301 15.9013 9.33598 14.7072 9.33598 13.2959C9.33598 11.8847 10.5301 10.6906 11.9413 10.6906ZM8.35899 22.1974H15.5236C16.0664 22.1974 16.5006 21.7632 16.5006 21.2204C16.5006 20.6777 16.0664 20.2435 15.5236 20.2435H8.35899C7.81621 20.2435 7.38199 20.6777 7.38199 21.2204C7.38199 21.7632 7.70766 22.1974 8.35899 22.1974Z" fill="#737F96"></path><path d="M33.8692 16.1183V16.0098V15.7926V15.6841C33.8692 15.6841 33.8692 15.5755 33.7607 15.5755V15.467L33.6521 15.3584L30.3955 12.4275C29.9612 12.1018 29.3099 12.1018 28.9842 12.536C28.6586 12.9702 28.6586 13.6216 29.0928 13.9472L30.2869 15.0328H26.2704H26.1618C26.1618 15.0328 26.0533 15.0328 26.0533 15.1413C25.9447 15.1413 25.9447 15.2499 25.8362 15.2499L15.3063 26.431H8.35883C7.81605 26.431 7.38184 26.8652 7.38184 27.408C7.38184 27.9508 7.81605 28.385 8.35883 28.385H15.5234C15.8491 28.385 16.0662 28.2765 16.2833 28.0593L26.8132 16.8782H29.8527L28.9842 17.6381C28.55 17.9637 28.4415 18.6151 28.7671 19.0493C28.9842 19.2664 29.3099 19.4835 29.527 19.4835C29.7441 19.4835 29.9612 19.375 30.1784 19.2664L33.435 16.7696L33.5436 16.6611C33.5436 16.6611 33.5435 16.5525 33.6521 16.5525L33.7607 16.444V16.3354V16.2269C33.8692 16.3354 33.8692 16.2269 33.8692 16.1183Z" fill="#737F96"></path></svg>