<svg xmlns="http://www.w3.org/2000/svg" width="52" height="52" viewBox="0 0 52 52" fill="none"><path d="M9.10807 46.8964C8.2611 46.8964 7.57191 46.2127 7.57191 45.3723V41.6368C7.57191 37.9056 8.70059 34.3133 10.8358 31.2487C12.9211 28.2561 15.816 25.9625 19.2077 24.6163L19.766 24.3946L19.2925 24.025C16.6238 21.9421 15.0933 18.8297 15.0933 15.4858C15.0933 9.49585 20 4.62256 26.0311 4.62256C32.0621 4.62256 36.9689 9.4959 36.9689 15.4858C36.9689 18.8296 35.4383 21.942 32.7696 24.025L32.2962 24.3946L32.8544 24.6163C36.2465 25.9625 39.1413 28.2558 41.2264 31.248C43.3616 34.3122 44.4902 37.9048 44.4901 41.6367V45.3722C44.4901 46.2126 43.801 46.8963 42.9539 46.8963L9.10807 46.8964ZM26.033 26.3491C17.5477 26.3491 10.6446 33.2073 10.6446 41.6368V43.8487H41.4176V41.6368C41.4176 33.2073 34.5161 26.3491 26.033 26.3491ZM26.0312 7.67037C21.6943 7.67037 18.1658 11.1765 18.1658 15.4861C18.1658 19.7957 21.6942 23.3017 26.0312 23.3017C30.3681 23.3017 33.8965 19.7957 33.8965 15.4861C33.8966 11.1764 30.3682 7.67037 26.0312 7.67037ZM1.58694 41.2927C0.739972 41.2927 0.0507812 40.609 0.0507812 39.7688V36.8792C0.0507812 31.3977 3.07799 26.4351 7.95103 23.9279L8.351 23.7221L8.04777 23.3898C6.52846 21.7252 5.69169 19.5822 5.69169 17.3558C5.69169 12.4472 9.66982 8.44408 14.5915 8.36001C14.56 8.41014 14.5289 8.46036 14.498 8.51079C13.7396 9.50259 13.1524 10.598 12.7508 11.7694C10.359 12.6135 8.76415 14.8368 8.76415 17.3557C8.76415 19.6815 10.144 21.8066 12.2793 22.7697L12.2894 22.7743L12.2997 22.7782C12.9357 23.0175 13.3467 23.5691 13.3467 24.1836C13.3467 24.8133 12.9048 25.3847 12.2453 25.6093L11.8932 25.6929C6.72763 26.9885 3.12289 31.5881 3.12289 36.8792V38.2452H4.91768C4.73489 39.2488 4.63328 40.2707 4.61466 41.2928H1.58689L1.58694 41.2927ZM47.4274 41.2924C47.4088 40.2703 47.3072 39.2485 47.1244 38.2451H48.919V36.8791C48.919 31.588 45.3142 26.9884 40.1527 25.6939L39.7967 25.6094C39.1376 25.3848 38.6957 24.8135 38.6957 24.1836C38.6957 23.5693 39.1067 23.0176 39.7426 22.7782L39.7529 22.7744L39.7628 22.7698C41.8983 21.8067 43.2782 19.6816 43.2782 17.3558C43.2782 14.8366 41.6833 12.6134 39.2911 11.7695C38.8898 10.5978 38.3025 9.50244 37.544 8.51043C37.5132 8.45996 37.482 8.40988 37.4506 8.35986C42.3723 8.44392 46.3504 12.4471 46.3504 17.3559C46.3504 19.5827 45.5137 21.7256 43.9944 23.3899L43.6911 23.7222L44.0913 23.9281C48.9644 26.4352 51.9914 31.3978 51.9912 36.8793V39.769C51.9912 40.609 51.3022 41.2925 50.4552 41.2925H47.4274L47.4274 41.2924Z" fill="#737F96"></path></svg>