<svg xmlns="http://www.w3.org/2000/svg" width="47" height="47" viewBox="0 0 47 47" fill="none"><g clip-path="url(#clip0_385_2877)"><path d="M7.49802 10.8771C10.9609 11.659 13.9769 9.08981 13.9769 5.85036C13.9769 2.94602 11.6311 0.711914 8.83849 0.711914C5.48733 0.711914 2.91811 3.83966 3.92345 7.30253C4.37028 9.08981 5.82244 10.4303 7.49802 10.8771ZM14.0886 18.0262C14.0886 17.5794 14.4238 17.1326 14.8706 17.1326L24.2538 17.0209H24.5889V17.2443C24.5889 17.5794 24.5889 17.9145 24.7006 18.1379C25.1475 17.5794 25.8177 17.356 26.4879 17.356H26.7113V17.2443C26.7113 15.9038 27.8284 14.7868 29.1689 14.7868C30.5093 14.7868 31.6264 15.9038 31.6264 17.2443C31.6264 18.5848 30.5093 19.7018 29.1689 19.7018H28.9454V19.8135C28.9454 20.5955 28.6103 21.2657 28.0518 21.7125C28.3869 21.8242 28.8337 21.8242 29.1689 21.8242C29.9508 21.8242 30.7327 21.6008 31.403 21.2657L34.1956 24.0583C34.419 24.2817 34.6424 24.3934 34.9775 24.3934H40.116C40.6745 24.3934 41.233 23.9466 41.233 23.2764C41.233 22.6061 40.7862 22.1593 40.116 22.1593H35.4243L33.0785 19.8135C33.5254 19.0316 33.8605 18.2496 33.8605 17.2443C33.8605 14.6751 31.8498 12.6644 29.2806 12.6644C28.6103 12.6644 27.9401 12.7761 27.3816 13.1112L24.5889 10.3186C24.3655 10.0952 24.1421 9.98345 23.807 9.98345H18.6686C18.11 9.98345 17.5515 10.4303 17.5515 11.1005C17.5515 11.7707 17.9983 12.2176 18.6686 12.2176H23.3602L24.0304 12.8878L15.2057 12.441H9.62043L10.0672 12.9995L9.50872 14.1165L10.6258 21.9359C10.6258 22.271 10.5141 22.6061 10.2907 22.8296L8.83849 24.2817V24.3934L8.72678 24.2817L8.61508 24.3934V24.2817L7.16291 22.7179C6.9395 22.4944 6.82779 22.1593 6.9395 21.8242L8.05655 14.0048L7.49802 12.8878L7.94485 12.2176H3.14152C2.8064 12.2176 2.47129 12.441 2.35958 12.8878C2.35958 12.8878 -0.209641 22.6062 0.0137692 25.7339L0.125475 25.8456C0.795706 26.2924 2.6947 27.7446 2.6947 27.7446C3.02981 28.0797 3.25322 28.5265 3.25322 28.9734L2.24787 45.2823C2.24787 45.8408 2.6947 46.2877 3.25322 46.2877H6.04586C6.60438 46.2877 6.9395 45.8409 7.0512 45.394L7.83314 30.8723H9.84383L10.7375 45.394C10.7375 45.9526 11.1843 46.2877 11.7428 46.2877H14.312C14.8706 46.2877 15.3174 45.8408 15.3174 45.2823L14.5355 28.1914L14.0886 18.0262Z" fill="#737F96"></path><path d="M42.5737 1.71729H17.1049C16.2112 1.71729 15.541 2.38752 15.541 3.28116C15.541 4.1748 16.2112 4.84503 17.1049 4.84503H42.5737C43.3556 4.84503 43.9142 5.40356 43.9142 6.1855V30.3138C43.9142 31.0958 43.3556 31.6543 42.5737 31.6543H17.1049C16.2112 31.6543 15.541 32.3245 15.541 33.2182C15.541 34.1118 16.2112 34.782 17.1049 34.782H25.7062V40.0322C25.7062 40.8141 26.3764 41.4844 27.1584 41.4844C27.9403 41.4844 28.6105 40.8141 28.6105 40.0322V34.782H42.462C44.9195 34.782 46.9302 32.7714 46.9302 30.3138V6.1855C47.0419 3.72798 45.0312 1.71729 42.5737 1.71729ZM35.8714 42.378H18.5571C17.6634 42.378 16.9932 43.0482 16.9932 43.9419C16.9932 44.8355 17.6634 45.5058 18.5571 45.5058H35.8714C36.765 45.5058 37.4353 44.8355 37.4353 43.9419C37.4353 43.0482 36.765 42.378 35.8714 42.378Z" fill="#737F96"></path><path d="M39.8922 16.1277H36.4294C35.8708 16.1277 35.3123 16.5745 35.3123 17.2447C35.3123 17.915 35.7591 18.3618 36.4294 18.3618H39.8922C40.4507 18.3618 41.0093 17.915 41.0093 17.2447C41.0093 16.5745 40.5624 16.1277 39.8922 16.1277ZM39.8922 9.98389H34.7538C34.1952 9.98389 33.6367 10.4307 33.6367 11.1009C33.6367 11.7712 34.0835 12.218 34.7538 12.218H39.8922C40.4507 12.218 41.0093 11.7712 41.0093 11.1009C41.0093 10.4307 40.5624 9.98389 39.8922 9.98389ZM18.5565 22.3832C17.998 22.3832 17.4395 22.83 17.4395 23.5002C17.4395 24.1705 17.8863 24.6173 18.5565 24.6173H23.1364C23.4715 24.6173 23.6949 24.5056 23.9184 24.2822L26.4876 21.7129C26.4876 21.7129 26.4876 21.6012 26.5993 21.6012C27.4929 21.6012 28.2749 20.8193 28.2749 19.814C28.2749 18.8086 27.4929 18.0267 26.4876 18.0267C25.4822 18.0267 24.7003 18.8086 24.7003 19.814C24.7003 20.0374 24.7003 20.1491 24.812 20.3725L22.8013 22.4949H18.5565V22.3832Z" fill="#737F96"></path></g><defs><clipPath id="clip0_385_2877"><rect width="47" height="47" fill="white"></rect></clipPath></defs></svg>