<svg width="100" height="88" viewBox="0 0 100 88" fill="none" xmlns="http://www.w3.org/2000/svg">
<path fill-rule="evenodd" clip-rule="evenodd" d="M99.7304 10.8826C99.9086 10.5442 100 10.2008 100 9.8531C100 4.41138 77.6142 0 50 0C22.3858 0 0 4.41138 0 9.8531C0 10.1572 0.0699052 10.4581 0.206722 10.7551L15.8846 79.1659C16.8461 83.3614 20.4584 86.4575 24.8086 86.8147L30.3321 87.2683C41.7591 88.2065 53.2439 88.2425 64.6766 87.376L72.8709 86.755C77.1347 86.4318 80.7181 83.4729 81.7867 79.393L99.7304 10.8826ZM88.0049 15.2718L63.9678 17.9033C59.5515 18.1144 54.861 18.228 50 18.228C42.794 18.228 35.9627 17.9784 29.8441 17.5316L12.781 15.4301C9.63143 14.813 7.10243 14.1158 5.34085 13.3614L2.82731 11.7103C2.61115 11.4243 2.5 11.1332 2.5 10.8382C2.5 6.75688 23.7665 3.44834 50 3.44834C76.2335 3.44834 97.5 6.75688 97.5 10.8382C97.5 11.1332 97.3888 11.4243 97.1727 11.7103L94.6591 13.3614C93.0466 14.052 90.791 14.6946 88.0049 15.2718ZM47.3931 19.693L47.5 19.7062L47.6017 19.6951C47.5322 19.6944 47.4626 19.6937 47.3931 19.693Z" fill="url(#paint0_linear_418_1336)"/>
<path d="M2 23C5.26667 27.9 26.5 45 51 44" stroke="#F3F7FB" stroke-width="2" stroke-linecap="round"/>
<path d="M98 23C94.8667 27.9 76 43.5 51 44" stroke="#F3F7FB" stroke-width="2" stroke-linecap="round"/>
<defs>
<linearGradient id="paint0_linear_418_1336" x1="50" y1="0" x2="50" y2="88" gradientUnits="userSpaceOnUse">
<stop stop-color="#E4F2FF"/>
<stop offset="1" stop-color="#B0DAFF"/>
</linearGradient>
</defs>
</svg>
