<svg xmlns="http://www.w3.org/2000/svg" width="20" height="20" viewBox="0 0 20 20" fill="none"><path d="M19.5668 4.00101C19.2262 3.64587 18.8375 3.34032 18.412 3.09331C17.8991 2.79095 17.3523 2.55024 16.783 2.37619C16.1803 2.18621 15.5462 2.11666 14.9167 2.1715C14.0608 2.20029 13.2239 2.43154 12.4746 2.84627C11.9063 3.17388 11.4338 3.6445 11.1038 4.21135C10.8115 4.7325 10.6629 5.322 10.6733 5.91947C10.6751 6.5079 10.8021 7.08922 11.046 7.62476C10.8963 7.88027 10.7636 8.11884 10.662 8.34189C10.5396 8.60446 10.4267 8.87126 10.3232 9.1423C10.199 9.51874 10.0931 9.89848 10.0056 10.2815C9.91803 9.8966 9.81216 9.51686 9.68793 9.1423C9.58441 8.87126 9.47147 8.60446 9.34913 8.34189C9.23088 8.09776 9.10278 7.85852 8.96516 7.62476C9.20916 7.08927 9.3362 6.50792 9.33784 5.91947C9.34845 5.32198 9.19984 4.73242 8.90728 4.21135C8.57761 3.64476 8.10557 3.17418 7.53796 2.84627C6.78864 2.43159 5.95172 2.20035 5.09578 2.1715C4.4663 2.11666 3.83219 2.18621 3.22956 2.37619C2.66018 2.55019 2.11336 2.79091 1.6005 3.09331C1.17498 3.34032 0.786273 3.64587 0.445756 4.00101C0.208004 4.2127 0.05171 4.50082 0.00390514 4.81555C-0.00316046 4.91323 0.028366 5.00979 0.0917134 5.08449C0.155061 5.15919 0.245176 5.20606 0.342705 5.21505C0.569983 5.26304 0.850904 5.30257 1.1897 5.33927C1.56653 5.38253 1.94004 5.45091 2.30774 5.54396C2.74587 5.66284 3.14443 5.89623 3.46249 6.22015C3.70903 6.44733 3.93968 6.69118 4.15279 6.94998C4.36642 7.21161 4.58523 7.46854 4.80921 7.72075C5.02238 7.96347 5.24958 8.19349 5.48964 8.40965C5.71097 8.6138 5.96728 8.77639 6.24629 8.88961C6.4087 8.95394 6.5746 9.00908 6.7432 9.05478C6.94561 9.10879 7.1567 9.12222 7.36433 9.0943C7.60722 9.05778 7.83907 8.96813 8.04334 8.83173C8.3229 8.64364 8.55292 8.39086 8.71388 8.09484C8.8625 8.34072 8.98055 8.60383 9.06539 8.87832C9.16956 9.19949 9.25627 9.52606 9.32513 9.8566C9.40324 10.218 9.46818 10.5813 9.51994 10.9464C9.5717 11.3116 9.61311 11.6645 9.64417 12.0052C9.66205 12.1793 9.67664 12.3538 9.68793 12.5289L9.64135 12.9679C9.64135 13.2502 9.64887 13.5326 9.66393 13.8149C9.67899 14.0972 9.68981 14.3866 9.6964 14.6831V14.9146C9.68793 15.0689 9.67758 15.2228 9.66534 15.3762C9.6597 15.4412 9.65264 15.5061 9.64417 15.571C9.52681 15.5486 9.41677 15.4977 9.32372 15.4228C9.18993 15.3118 9.06831 15.1869 8.96092 15.0501C8.86969 14.9305 8.76287 14.8237 8.6433 14.7325C8.5732 14.6915 8.49389 14.6688 8.41271 14.6666C8.33153 14.6644 8.25109 14.6827 8.17886 14.7198C7.73983 14.868 7.28386 15.0388 6.80954 15.2308C6.37663 15.404 5.95031 15.5922 5.53058 15.7955C5.22237 15.9374 4.93387 16.1186 4.67228 16.3347C4.47747 16.5098 4.43795 16.6608 4.55935 16.7879C4.88858 17.0586 5.27459 17.2516 5.68868 17.3525C6.28144 17.5194 6.88663 17.6383 7.49844 17.7083C8.21514 17.7941 8.93647 17.8356 9.65829 17.8325C10.399 17.8334 11.1392 17.7962 11.876 17.721C12.5476 17.6566 13.2134 17.542 13.8679 17.378C14.3832 17.2624 14.8759 17.0625 15.3261 16.7865C15.4758 16.6933 15.4532 16.5606 15.257 16.3856C14.9916 16.1659 14.6994 15.9809 14.3874 15.835C13.9601 15.6233 13.5262 15.4261 13.0858 15.2435C12.6454 15.0609 12.1852 14.8859 11.7052 14.7184C11.6321 14.6877 11.5525 14.6754 11.4735 14.6825C11.3945 14.6896 11.3185 14.716 11.2521 14.7593C11.1357 14.8484 11.0292 14.9497 10.9344 15.0614C10.8195 15.1894 10.6949 15.3083 10.5618 15.4172C10.4983 15.4676 10.4267 15.5068 10.35 15.5329C10.35 15.4793 10.3387 15.4242 10.3331 15.3706C10.3208 15.2162 10.3105 15.0619 10.302 14.9075V14.6774C10.3105 14.3885 10.3213 14.0991 10.3345 13.8093C10.3476 13.5194 10.3552 13.2371 10.3571 12.9623L10.3105 12.5247C10.3218 12.3496 10.3364 12.175 10.3542 12.0009C10.3872 11.6471 10.4286 11.2941 10.4785 10.9422C10.5283 10.5902 10.5933 10.2269 10.6733 9.85237C10.7422 9.52184 10.8289 9.19527 10.933 8.87408C11.0179 8.59962 11.136 8.33653 11.2845 8.09061C11.4455 8.38662 11.6755 8.63941 11.9551 8.8275C12.1595 8.96364 12.3913 9.05328 12.6341 9.09007C12.8422 9.11799 13.0537 9.10456 13.2566 9.05054C13.4251 9.00457 13.591 8.94943 13.7535 8.88538C14.0325 8.77212 14.2888 8.60954 14.5102 8.40541C14.7503 8.18931 14.9775 7.95929 15.1906 7.71652C15.4155 7.4643 15.6343 7.20738 15.847 6.94575C16.0601 6.6869 16.2907 6.44304 16.5373 6.21592C16.8556 5.89221 17.2541 5.65886 17.6921 5.53973C18.0598 5.44663 18.4333 5.37825 18.8101 5.33504C19.1503 5.29833 19.4327 5.2574 19.6571 5.21081C19.7546 5.20183 19.8448 5.15495 19.9081 5.08026C19.9715 5.00556 20.003 4.909 19.9959 4.81131C19.9508 4.49974 19.7991 4.21341 19.5668 4.00101ZM8.32285 7.485C8.07212 7.03255 7.74824 6.62472 7.36433 6.27803C6.97715 5.87093 6.53588 5.51896 6.05289 5.23199C5.64755 4.99127 5.20968 4.81013 4.75275 4.69414C4.35333 4.59554 3.94537 4.5355 3.53448 4.51486C3.51069 4.51714 3.48674 4.51274 3.46531 4.50216C3.45119 4.49227 3.46531 4.48804 3.50907 4.48804C4.54572 4.34659 5.59953 4.56483 6.49474 5.10635C7.36624 5.58579 8.09646 6.28583 8.61224 7.13632L8.32991 7.48359L8.32285 7.485ZM16.5458 4.50357C16.5244 4.51408 16.5004 4.51848 16.4766 4.51627C16.0657 4.53688 15.6578 4.59692 15.2584 4.69555C14.8014 4.8116 14.3636 4.99273 13.9582 5.2334C13.4752 5.52037 13.034 5.87235 12.6468 6.27944C12.2635 6.6258 11.9401 7.03315 11.6897 7.485L11.4073 7.13773C11.9231 6.28724 12.6533 5.5872 13.5248 5.10776C14.42 4.56613 15.4739 4.34789 16.5105 4.48945C16.5458 4.48945 16.5585 4.49227 16.5458 4.49933V4.50357Z" fill="white"></path></svg>