<svg xmlns="http://www.w3.org/2000/svg" width="20" height="20" viewBox="0 0 20 20" fill="none"><path fill-rule="evenodd" clip-rule="evenodd" d="M16.6315 14.8681V15.9382H18.5042V18.0784H12.0919V15.9382H13.9646V14.8681H14.4996V4.44002C14.4996 3.70153 13.9005 3.10238 13.162 3.10238C12.4235 3.10238 11.8243 3.70153 11.8243 4.44002V9.51749C11.8243 10.1975 11.4007 10.7771 10.8044 11.0112C11.7714 11.9531 12.3566 13.2044 12.3566 14.5977C12.3566 15.3362 11.7574 15.9354 11.019 15.9354H8.72267L8.71431 15.9521V15.8992C8.71431 14.8123 7.83091 13.9289 6.74408 13.9289C5.65724 13.9289 4.77384 14.8123 4.77384 15.8992C4.77384 15.9131 4.77454 15.927 4.77524 15.941C4.77593 15.9549 4.77663 15.9688 4.77663 15.9828C4.77384 15.9744 4.77036 15.9667 4.76687 15.9591C4.76339 15.9514 4.75991 15.9437 4.75712 15.9354H3.26342C2.52493 15.9354 1.92578 15.3362 1.92578 14.5977V11.1254C1.92578 10.0943 2.76459 9.25553 3.79848 9.25553H4.33075V8.45295H6.73572V9.27504C7.22897 9.30848 7.70551 9.39208 8.15696 9.52027H9.94606C10.0938 9.52027 10.2136 9.40044 10.2136 9.25275V4.44002C10.2136 2.82092 11.5373 1.5 13.1564 1.5C14.7755 1.5 16.0964 2.81813 16.0964 4.44002V14.8681H16.6315ZM5.09375 15.9019C5.09375 14.9934 5.83224 14.2549 6.74072 14.2549C7.6492 14.2549 8.3849 14.9934 8.38769 15.9019C8.38769 16.8103 7.6492 17.5488 6.74072 17.5488C5.83224 17.5488 5.09375 16.8103 5.09375 15.9019Z" fill="white"></path></svg>