<svg xmlns="http://www.w3.org/2000/svg" width="20" height="20" viewBox="0 0 20 20" fill="none"><path d="M4.41804 2.0059C6.41414 2.80395 7.07951 4.00785 7.27658 4.92493C6.73609 5.32883 6.2639 5.85176 5.86195 6.46054C6.79073 7.09273 8.27755 7.86541 10.0005 7.86541C11.7273 7.86541 13.2102 7.09468 14.139 6.46249C13.7371 5.85566 13.2629 5.33078 12.7244 4.92688C12.9234 4.01176 13.5907 2.80785 15.5829 2.00785C15.7819 1.92785 15.8795 1.70151 15.7976 1.50249C15.7176 1.30346 15.4893 1.2059 15.2922 1.28785C13.1888 2.12883 12.3576 3.42444 12.0493 4.49761C11.4171 4.16395 10.7224 3.97859 9.99463 3.97859C9.26682 3.97859 8.57609 4.16395 7.93999 4.49761C7.63365 3.42054 6.80634 2.12883 4.69902 1.28785C4.50195 1.20785 4.2756 1.30541 4.19365 1.50249C4.12146 1.69956 4.21902 1.9259 4.41804 2.0059Z" fill="white"></path><path d="M17.7712 10.9717H15.4414C15.4414 10.5561 15.4082 10.1502 15.3536 9.75415L17.3965 8.53073C17.7634 8.31025 17.8843 7.8322 17.6619 7.46537C17.4414 7.09854 16.9634 6.97756 16.5965 7.2L14.9829 8.16781C14.858 7.80488 14.7078 7.46342 14.54 7.13366C13.5175 7.82439 11.9097 8.64195 10.0014 8.64195C8.09312 8.64195 6.48337 7.82439 5.46093 7.13171C5.29312 7.45756 5.14288 7.80293 5.018 8.16586L3.40629 7.1961C3.03946 6.97366 2.56142 7.09464 2.34093 7.46146C2.12044 7.82829 2.23946 8.30634 2.60825 8.52683L4.65117 9.75025C4.59654 10.1463 4.56337 10.5502 4.56337 10.9678H2.22971C1.80044 10.9678 1.45117 11.3151 1.45117 11.7463C1.45117 12.1756 1.79849 12.5249 2.22971 12.5249H4.69215C4.75068 12.88 4.83068 13.2332 4.92629 13.5766L2.60825 14.9678C2.24142 15.1883 2.12044 15.6663 2.34093 16.0332C2.48532 16.2751 2.74483 16.4098 3.00825 16.4098C3.14483 16.4098 3.28337 16.3727 3.40825 16.2985L5.46288 15.0654C6.43654 17.1824 8.10483 18.7415 9.99947 18.7415C11.8941 18.7415 13.5643 17.1863 14.5361 15.0654L16.5926 16.2985C16.7175 16.3727 16.8561 16.4098 16.9926 16.4098C17.2561 16.4098 17.5136 16.2751 17.66 16.0332C17.8804 15.6663 17.7614 15.1883 17.3946 14.9678L15.0746 13.5785C15.1702 13.2332 15.2482 12.882 15.3087 12.5268H17.7712C18.2004 12.5268 18.5497 12.1795 18.5497 11.7483C18.5497 11.319 18.2004 10.9717 17.7712 10.9717ZM8.058 12.1346C7.4141 12.1346 6.89312 11.6137 6.89312 10.9698C6.89312 10.3259 7.4141 9.80488 8.058 9.80488C8.7019 9.80488 9.22288 10.3259 9.22288 10.9698C9.22288 11.6137 8.7019 12.1346 8.058 12.1346ZM13.1097 14.08C13.1078 15.1278 12.2804 15.9805 11.2443 16.0215C11.219 16.0234 11.1936 16.0234 11.1663 16.0234C11.139 16.0234 11.1117 16.0234 11.0843 16.0215C10.0521 15.9785 9.22873 15.1298 9.22288 14.0878V14.08C9.22288 13.0068 10.0931 12.1366 11.1663 12.1366C12.2395 12.1366 13.1097 13.0068 13.1097 14.08Z" fill="white"></path></svg>