<svg xmlns="http://www.w3.org/2000/svg" width="20" height="20" viewBox="0 0 20 20" fill="none"><path d="M5.78875 12.4213C5.18398 12.644 4.16224 13.2986 4.16224 14.3334C4.16224 14.9879 4.44943 15.4089 4.67863 15.7484C4.85537 16.0092 4.95478 16.164 4.95478 16.3622C4.95478 16.7588 4.52123 16.9462 4.50742 16.9516C4.44001 16.978 4.37857 17.0173 4.32664 17.0671C4.27471 17.1169 4.23331 17.1764 4.20482 17.242C4.17634 17.3076 4.16132 17.3781 4.16065 17.4495C4.15998 17.5209 4.17365 17.5916 4.2009 17.6578C4.24182 17.7589 4.31266 17.8455 4.40424 17.9065C4.49582 17.9675 4.60392 18.0001 4.71453 18C4.78357 18 4.85261 17.9864 4.91888 17.962C5.34139 17.7963 6.05937 17.2721 6.05937 16.365C6.05937 15.8272 5.80255 15.4497 5.59544 15.1482C5.41042 14.8766 5.26407 14.662 5.26407 14.3361C5.26407 13.8852 5.94063 13.5295 6.17811 13.4398C6.3147 13.389 6.42517 13.287 6.48524 13.1561C6.54532 13.0252 6.55006 12.8762 6.49845 12.7418C6.47348 12.6748 6.43526 12.6132 6.38601 12.5608C6.33675 12.5083 6.27742 12.466 6.21145 12.4362C6.14548 12.4064 6.07416 12.3898 6.00161 12.3872C5.92906 12.3847 5.85672 12.3962 5.78875 12.4213ZM10.7097 12.4213C10.1049 12.644 9.08043 13.2986 9.08043 14.3334C9.08043 14.9879 9.36762 15.4089 9.59682 15.7484C9.77356 16.0092 9.87297 16.164 9.87297 16.3622C9.87297 16.7588 9.43942 16.9462 9.42561 16.9516C9.3582 16.978 9.29677 17.0173 9.24483 17.0671C9.1929 17.1169 9.1515 17.1764 9.12301 17.242C9.09453 17.3076 9.07951 17.3781 9.07884 17.4495C9.07817 17.5209 9.09185 17.5916 9.11909 17.6578C9.16002 17.7589 9.23086 17.8455 9.32243 17.9065C9.41401 17.9675 9.52211 18.0001 9.63272 18C9.70176 18 9.7708 17.9864 9.83707 17.962C10.2596 17.7963 10.9776 17.2721 10.9776 16.365C10.9776 15.8272 10.7207 15.4497 10.5136 15.1482C10.3286 14.8766 10.1823 14.662 10.1823 14.3361C10.1823 13.8852 10.8561 13.5295 11.0935 13.4398C11.23 13.3888 11.3405 13.2869 11.401 13.1562C11.4615 13.0255 11.4671 12.8766 11.4166 12.7418C11.3922 12.6747 11.3545 12.613 11.3055 12.5604C11.2566 12.5078 11.1975 12.4653 11.1316 12.4355C11.0658 12.4056 10.9946 12.389 10.9221 12.3866C10.8497 12.3841 10.7774 12.3959 10.7097 12.4213ZM15.6334 12.4213C15.0286 12.644 14.0069 13.2986 14.0069 14.3334C14.0069 14.9879 14.2941 15.4089 14.5233 15.7484C14.7 16.0092 14.7994 16.164 14.7994 16.3622C14.7994 16.7588 14.3659 16.9462 14.3521 16.9516C14.2847 16.978 14.2232 17.0173 14.1713 17.0671C14.1194 17.1169 14.078 17.1764 14.0495 17.242C14.021 17.3076 14.006 17.3781 14.0053 17.4495C14.0046 17.5209 14.0183 17.5916 14.0456 17.6578C14.0865 17.7589 14.1573 17.8455 14.2489 17.9065C14.3405 17.9675 14.4486 18.0001 14.5592 18C14.6282 18 14.6973 17.9864 14.7635 17.962C15.1861 17.7963 15.904 17.2721 15.904 16.365C15.904 15.8272 15.6472 15.4497 15.4401 15.1482C15.2551 14.8766 15.1087 14.662 15.1087 14.3361C15.1087 13.8852 15.7853 13.5295 16.0228 13.4398C16.1594 13.389 16.2698 13.287 16.3299 13.1561C16.39 13.0252 16.3947 12.8762 16.3431 12.7418C16.3181 12.6748 16.2799 12.6132 16.2307 12.5608C16.1814 12.5083 16.1221 12.466 16.0561 12.4362C15.9901 12.4064 15.9188 12.3898 15.8463 12.3872C15.7737 12.3847 15.7014 12.3962 15.6334 12.4213ZM16.912 2H3.08526C2.79743 2 2.52139 2.11246 2.31787 2.31263C2.11434 2.51281 2 2.7843 2 3.06739V8.13274C2 8.41583 2.11434 8.68733 2.31787 8.8875C2.52139 9.08768 2.79743 9.20014 3.08526 9.20014H3.61823V9.73247C3.61823 10.6206 4.35278 11.3431 5.25578 11.3431H14.7442C15.6472 11.3431 16.3818 10.6206 16.3818 9.73247V9.20014H16.9147C17.2026 9.20014 17.4786 9.08768 17.6821 8.8875C17.8857 8.68733 18 8.41583 18 8.13274V3.06468C17.9983 2.78187 17.883 2.51121 17.6791 2.31174C17.4753 2.11228 17.1995 2.00021 16.912 2ZM15.2744 9.72976C15.2744 10.0177 15.0369 10.2539 14.7415 10.2539H5.25578C4.96306 10.2539 4.72282 10.0204 4.72282 9.72976V9.19742H15.2744V9.72976ZM16.6414 4.39823H13.9296V3.06468H16.6414V4.39823Z" fill="white"></path></svg>