<svg xmlns="http://www.w3.org/2000/svg" width="24" height="24" viewBox="0 0 24 24" fill="none"><path d="M11.1391 20.0835C6.23359 20.0835 2.24219 16.0944 2.24219 11.189C2.24219 6.2835 6.23359 2.29443 11.1391 2.29443C16.0445 2.29443 20.0336 6.2835 20.0336 11.189C20.0336 16.0944 16.0422 20.0835 11.1391 20.0835ZM11.1391 4.24209C7.30937 4.24209 4.19219 7.35928 4.19219 11.189C4.19219 15.0187 7.30937 18.1358 11.1391 18.1358C14.9688 18.1358 18.0859 15.021 18.0859 11.189C18.0859 7.35693 14.9688 4.24209 11.1391 4.24209Z" fill="white"></path><path d="M11.1395 16.3149C8.31289 16.3149 6.01367 14.0157 6.01367 11.1891C6.01367 10.65 6.44961 10.2141 6.98867 10.2141C7.52773 10.2141 7.96367 10.65 7.96367 11.1891C7.96367 12.9422 9.38867 14.3672 11.1418 14.3672C11.6809 14.3672 12.1168 14.8032 12.1168 15.3422C12.1121 15.879 11.6762 16.3149 11.1395 16.3149ZM20.7559 21.5555C20.5168 21.5555 20.2754 21.4688 20.0879 21.2907L16.2957 17.7235C15.9043 17.3555 15.8855 16.7391 16.2535 16.3454C16.6238 15.954 17.2402 15.9352 17.6316 16.3032L21.4262 19.8704C21.8176 20.2383 21.8363 20.8547 21.4684 21.2485C21.2738 21.4524 21.016 21.5555 20.7559 21.5555Z" fill="white"></path></svg>