<?xml version="1.0" encoding="UTF-8"?>
<svg version="1.1" xmlns="http://www.w3.org/2000/svg" width="704" height="633">
<path d="M0 0 C2.91112655 2.90547388 5.81308898 5.81959234 8.70703125 8.7421875 C10.0754682 10.11984395 11.44395897 11.49744694 12.8125 12.875 C13.48603516 13.55691406 14.15957031 14.23882812 14.85351562 14.94140625 C19.39935064 19.50899168 24.0937839 23.82312809 29 28 C29.59063232 28.50789063 30.18126465 29.01578125 30.78979492 29.5390625 C46.47247519 42.92208223 63.66527124 54.5553274 82 64 C83.24740967 64.64316162 83.24740967 64.64316162 84.52001953 65.29931641 C115.87205936 81.26704907 149.23816514 90.93482636 184 96 C185.69116943 96.2477417 185.69116943 96.2477417 187.41650391 96.50048828 C205.78064481 99.03917652 224.05354235 99.26062384 242.5625 99.25 C243.72821533 99.24940582 244.89393066 99.24881165 246.0949707 99.24819946 C249.43972448 99.24168287 252.78422176 99.22521537 256.12890625 99.203125 C257.64104454 99.19653114 257.64104454 99.19653114 259.18373108 99.18980408 C263.91271272 99.14229047 268.34084228 98.88419798 273 98 C274.8861148 97.86261961 276.7746401 97.75569013 278.6640625 97.67578125 C351.52151333 93.99568227 431.00634891 70.89587272 486.03100586 21.24975586 C489.69193789 18 489.69193789 18 493 18 C491.71376221 23.70354822 490.4274972 29.40709031 489.14120483 35.11062622 C488.12330878 39.62407057 487.10545093 44.13752352 486.08764303 48.65098774 C482.79408964 63.2561108 479.49954969 77.86101019 476.20250964 92.46534657 C474.64257862 99.37528098 473.08298145 106.28529073 471.5234375 113.1953125 C471.34850596 113.9703618 471.17357442 114.7454111 470.99334192 115.54394674 C466.1100493 137.18032029 461.24215421 158.82008199 456.39166594 180.46383286 C454.30941942 189.75412039 452.22230558 199.04331511 450.134758 208.33241272 C448.45514684 215.80752693 446.78013163 223.28364346 445.11077893 230.76105535 C443.83282551 236.48329852 442.5473278 242.20383022 441.25910568 247.9237709 C440.735184 250.25584151 440.2137619 252.58847536 439.69508743 254.9217186 C438.98622194 258.10903223 438.26835819 261.29419405 437.54833984 264.47900391 C437.24777742 265.8459395 437.24777742 265.8459395 436.94114304 267.24048996 C432.81435983 285.31923634 424.72610964 295.41831922 409.21484375 305.51171875 C363.16421723 334.33544783 304.21141557 337.42951949 251.41333008 337.26074219 C247.43490409 337.24999299 243.45692843 337.26074018 239.47851562 337.2734375 C184.66584497 337.30461709 118.89117823 333.10537107 75 296 C74.236875 295.41992188 73.47375 294.83984375 72.6875 294.2421875 C61.89914228 285.71462533 60.15870903 272.53905092 57.359375 259.83203125 C56.92062158 257.88640209 56.4807032 255.94103532 56.03971863 253.99591064 C54.84507151 248.71158662 53.66646322 243.42379958 52.49058151 238.13527298 C51.23968084 232.52284697 49.97370445 226.91382342 48.70922852 221.30444336 C46.56488381 211.78345528 44.42923739 202.26055273 42.29931641 192.73632812 C39.02252816 178.08600258 35.72257308 163.44094763 32.41796875 148.796875 C31.33085383 143.97862395 30.24386247 139.16034505 29.15698242 134.34204102 C28.89003098 133.15862908 28.62307955 131.97521715 28.34803867 130.75594425 C26.48304546 122.48639155 24.6218647 114.21598707 22.76293945 105.94506836 C22.50567424 104.80045482 22.24840902 103.65584127 21.98334789 102.47654247 C21.47064924 100.19540728 20.95795358 97.9142714 20.445261 95.63313484 C16.93206818 80.00230298 13.41125597 64.3733696 9.85014153 48.75337791 C9.32458344 46.44754608 8.79968053 44.1415662 8.27503967 41.83552551 C7.94516088 40.38571145 7.61528114 38.9358976 7.28540039 37.48608398 C7.04956663 36.44947805 7.04956663 36.44947805 6.80896854 35.39193058 C5.77977347 30.87077001 4.74302547 26.35138032 3.70483398 21.83227539 C3.19748929 19.60438967 2.69038978 17.37644809 2.18359375 15.1484375 C1.9568396 14.17095047 1.73008545 13.19346344 1.49645996 12.18635559 C1.19548401 10.85540108 1.19548401 10.85540108 0.88842773 9.49755859 C0.71512436 8.74203705 0.54182098 7.9865155 0.36326599 7.20809937 C-0.03741161 4.77259489 -0.06165909 2.46395771 0 0 Z " fill="#008BFF" transform="translate(104,296)"/>
<path d="M0 0 C1.7311719 0.2577051 3.45990841 0.53179489 5.1875 0.8125 C6.15042969 0.96332031 7.11335937 1.11414063 8.10546875 1.26953125 C11.18644418 2.04705137 13.36930001 3.2445969 16 5 C15.71171915 19.45728462 14.90101745 31.54238028 7.3125 44.2421875 C1.2371786 55.13743874 -1.33143857 67.32554929 -4.4375 79.3125 C-5.08759764 81.76550025 -5.7393838 84.21805359 -6.39282227 86.67016602 C-7.9892881 92.67613867 -9.56556053 98.68718369 -11.13574219 104.70007324 C-12.39943737 109.5251399 -13.68276656 114.34489679 -14.96875 119.1640625 C-16.99670548 126.77149392 -19.00750398 134.38318975 -21 142 C-20.37174316 141.96970703 -19.74348633 141.93941406 -19.09619141 141.90820312 C26.26028188 139.81023425 71.72260225 140.79059304 117 144 C116.65066406 142.9378125 116.30132812 141.875625 115.94140625 140.78125 C115.48139834 139.35428669 115.02178397 137.92719648 114.5625 136.5 C114.21735352 135.45585937 114.21735352 135.45585937 113.86523438 134.390625 C107.79668319 115.3934213 111.40319156 95.79495054 120.33984375 78.390625 C124.03478903 71.79908826 128.72715852 66.38212317 134 61 C134.59167969 60.37222656 135.18335938 59.74445313 135.79296875 59.09765625 C147.25439197 47.93984689 163.65830233 43.21698316 179.15234375 41.91796875 C182.08641714 42.00248938 183.59621931 42.35089464 186 44 C186.9375 46.25 186.9375 46.25 187 49 C184.68524205 54.53888509 181.14099372 59.1081964 177.5625 63.875 C176.94866455 64.70128906 176.3348291 65.52757813 175.70239258 66.37890625 C172.63671994 70.49959938 169.54771747 74.60222358 166.4453125 78.6953125 C165.89544678 79.42250488 165.34558105 80.14969727 164.77905273 80.89892578 C163.73836158 82.27278497 162.69375491 83.6436892 161.64477539 85.01123047 C159.6351111 87.65956072 158.05923577 89.8222927 157 93 C157.94703467 95.55445943 158.95941791 97.9469587 160.11328125 100.40625 C160.44289352 101.12735962 160.7725058 101.84846924 161.11210632 102.59143066 C161.81132458 104.11659269 162.51521486 105.63962012 163.22338867 107.16064453 C164.30639175 109.48687979 165.37611617 111.81884223 166.44335938 114.15234375 C167.12423258 115.6331656 167.80584883 117.11364607 168.48828125 118.59375 C168.80920242 119.2906897 169.1301236 119.98762939 169.46076965 120.70568848 C170.82388777 123.62961314 172.20637385 126.30956078 174 129 C176.81567361 129.68061673 179.47352436 130.17351697 182.33203125 130.5625 C183.16079269 130.68109375 183.98955414 130.7996875 184.84342957 130.921875 C186.59849074 131.16747401 188.35459333 131.40572566 190.11157227 131.63720703 C192.79636067 131.99783214 195.47223745 132.40195413 198.15039062 132.80859375 C199.85640389 133.04176322 201.56277692 133.27231839 203.26953125 133.5 C204.06865433 133.62576416 204.8677774 133.75152832 205.69111633 133.88110352 C209.91653701 134.38996798 211.35925028 134.4970548 214.84790039 131.79077148 C215.55809326 130.86981689 216.26828613 129.9488623 217 129 C217.55381348 128.31043213 218.10762695 127.62086426 218.67822266 126.91040039 C219.1685498 126.22969482 219.65887695 125.54898926 220.1640625 124.84765625 C220.72343506 124.07744141 221.28280762 123.30722656 221.85913086 122.51367188 C222.44186768 121.70478516 223.02460449 120.89589844 223.625 120.0625 C224.86723127 118.36496389 226.11073441 116.66835782 227.35546875 114.97265625 C229.98430503 111.3864346 229.98430503 111.3864346 232.60791016 107.79638672 C234.0355266 105.85199442 235.48278918 103.92416449 236.9375 102 C237.34887207 101.431604 237.76024414 100.86320801 238.18408203 100.27758789 C241.35265138 96.14193816 244.22031989 94.68901579 249 93 C252.85454045 95.53588188 254.47978017 97.45614579 255.625 101.93286133 C256.32637992 105.79912681 256.3384268 109.64266886 256.3125 113.5625 C256.30758545 114.44292969 256.3026709 115.32335937 256.29760742 116.23046875 C255.99832652 133.07614646 250.45385187 147.15977882 241 161 C241.60247559 161.17015625 242.20495117 161.3403125 242.82568359 161.515625 C279.58872658 172.00938409 279.58872658 172.00938409 290 182 C290.59296875 182.53109375 291.1859375 183.0621875 291.796875 183.609375 C294.830794 186.643294 295.93970828 188.36903726 296.35742188 192.74047852 C296.14181252 199.90068723 294.34268535 206.87709473 292.78125 213.83984375 C292.44164178 215.37243069 292.10208378 216.90502875 291.76257324 218.43763733 C291.05026959 221.63908458 290.32925309 224.8384385 289.60351562 228.03686523 C288.681841 232.10735799 287.79462014 236.18453888 286.91547394 240.26439571 C286.22697659 243.43021571 285.51374841 246.59010318 284.79393005 249.74893379 C284.45647576 251.24862003 284.12790756 252.75033804 283.80897522 254.25407219 C281.76916673 263.8165103 279.01371625 270.84904578 272 278 C271.3820607 278.6448938 270.7641214 279.2897876 270.12745667 279.95422363 C268.48628059 281.63199681 266.79361665 283.22787718 265.0625 284.8125 C264.42699219 285.39870117 263.79148437 285.98490234 263.13671875 286.58886719 C210.86331353 334.00613408 141.10067119 356.62179013 72 364 C71.06043457 364.10441406 70.12086914 364.20882813 69.15283203 364.31640625 C-15.17616004 373.29331765 -105.48028498 359.77162998 -172.9375 305.3125 C-177.2682924 301.68382091 -181.48059953 297.93065613 -185.65625 294.125 C-187.80692711 292.17505276 -189.98824971 290.26973871 -192.1875 288.375 C-198.66959164 282.712932 -204.40114363 276.52324541 -210 270 C-210.95389382 268.90968948 -211.90836753 267.81988613 -212.86328125 266.73046875 C-213.9091097 265.52886819 -214.95468103 264.3270438 -216 263.125 C-216.72932739 262.29633423 -216.72932739 262.29633423 -217.47338867 261.45092773 C-224.6805515 253.11648148 -229.79911447 245.70738332 -232.08984375 234.8046875 C-232.44122154 233.25625656 -232.44122154 233.25625656 -232.79969788 231.67654419 C-233.28631044 229.51246426 -233.76222796 227.34595355 -234.2277832 225.17724609 C-234.93826675 221.8714324 -235.68198153 218.57447138 -236.43164062 215.27734375 C-236.90299204 213.16189196 -237.37245865 211.04601914 -237.83984375 208.9296875 C-238.05849594 207.95240692 -238.27714813 206.97512634 -238.50242615 205.9682312 C-241.32616928 192.70759561 -241.32616928 192.70759561 -238.5 186.9375 C-220.631878 165.94245664 -186.63496332 161.07020635 -161 156 C-165.00936753 151.9369698 -169.13645195 148.01604364 -173.3125 144.125 C-173.98112061 143.50149658 -174.64974121 142.87799316 -175.33862305 142.2355957 C-179.20062477 138.64444666 -183.08971785 135.09762708 -187.08984375 131.66015625 C-190.41216492 128.7726583 -193.64837002 125.78864038 -196.8984375 122.8203125 C-198.86723421 120.96323333 -198.86723421 120.96323333 -201 120 C-198.61443205 114.22539744 -193.58354552 110.134306 -189.25439453 105.77392578 C-187.6506694 104.1509771 -186.06965712 102.50797151 -184.48828125 100.86328125 C-178.58906129 94.84658014 -173.28955771 90.73427972 -165.49560547 87.24902344 C-162.21862723 85.60893141 -160.61748569 83.68555252 -158.75 80.5625 C-152.8955502 71.71497771 -146.39433514 67.50101522 -137.01953125 62.6796875 C-134.50272615 61.27965361 -132.68139185 60.02855939 -130.625 58.0625 C-117.18920139 45.71877369 -97.73411237 41.59797756 -80 42 C-63.05306921 42.94693079 -63.05306921 42.94693079 -58 48 C-57.625 50.375 -57.625 50.375 -58 53 C-61.7095857 55.78218927 -65.10354197 56.56232581 -69.625 57.3125 C-83.52159887 60.10637119 -93.30022281 67.63509668 -101.23828125 79.12890625 C-103.81866885 83.33419424 -105.93548073 86.98276485 -106 92 C-104.84057526 94.04301321 -104.84057526 94.04301321 -103.03125 95.828125 C-102.38406006 96.51801514 -101.73687012 97.20790527 -101.07006836 97.91870117 C-97.79900553 101.20751007 -94.46875983 104.41397679 -91.0625 107.5625 C-90.32741211 108.24795898 -89.59232422 108.93341797 -88.83496094 109.63964844 C-87.31010193 111.06150286 -85.78389249 112.48191036 -84.25634766 113.90087891 C-81.41339924 116.54572531 -78.5836438 119.20434558 -75.75732422 121.86694336 C-74.42461764 123.11714596 -73.08642069 124.36152279 -71.74267578 125.59985352 C-68.58286447 128.51765503 -65.53409754 131.46047029 -62.63671875 134.640625 C-62.09499023 135.20813477 -61.55326172 135.77564453 -60.99511719 136.36035156 C-60.00419364 137.40346167 -59.04320869 138.4764965 -58.12597656 139.58496094 C-56.41708324 141.33739294 -55.30650587 142.09766924 -53 143 C-50.36397153 142.98305989 -47.87816651 142.8711411 -45.26586914 142.625 C-44.56734077 142.56828125 -43.86881241 142.5115625 -43.14911652 142.453125 C-41.43188185 142.31222746 -39.71579399 142.15747376 -38 142 C-35.03196265 130.96070478 -32.06738313 119.92048729 -29.10714149 108.87909889 C-27.73228723 103.75146578 -26.35627075 98.62415062 -24.97753906 93.49755859 C-23.64554888 88.54459305 -22.31668895 83.59079717 -20.98994064 78.63642502 C-20.48473496 76.75203294 -19.97842658 74.86793612 -19.47096634 72.98414993 C-18.75712878 70.33348262 -18.04731876 67.68176596 -17.33837891 65.02978516 C-17.13050247 64.2615744 -16.92262604 63.49336365 -16.70845032 62.70187378 C-14.33481463 53.78461792 -12.82300662 45.35571103 -12.6875 36.125 C-12.39933489 27.77129373 -10.962614 21.44369515 -7 14 C-6.36705299 12.72334957 -5.73838848 11.44456989 -5.11328125 10.1640625 C-3.44342247 6.7576856 -1.73241365 3.37496147 0 0 Z M-129 117 C-131.34490494 119.00852627 -131.34490494 119.00852627 -132 122.8125 C-135.39478204 133.3684143 -144.75622013 142.07158987 -152.23999023 149.95019531 C-154.82653738 152.13932675 -154.82653738 152.13932675 -156 155 C-145.86194863 154.33185841 -135.8620298 152.93988983 -125.8125 151.5 C-122.65259808 151.05027613 -119.49242013 150.60253848 -116.33203125 150.15625 C-115.58938019 150.05119141 -114.84672913 149.94613281 -114.08157349 149.83789062 C-109.06147503 149.13340511 -104.04311556 148.51187332 -99 148 C-98.68309983 144.96148627 -98.68309983 144.96148627 -100.6171875 143.02636719 C-101.36226562 142.29063477 -102.10734375 141.55490234 -102.875 140.796875 C-103.69613281 139.98089844 -104.51726562 139.16492188 -105.36328125 138.32421875 C-106.66845703 137.04998047 -106.66845703 137.04998047 -108 135.75 C-109.25876953 134.49896484 -109.25876953 134.49896484 -110.54296875 133.22265625 C-119.26814751 124.51301819 -119.26814751 124.51301819 -129 117 Z M-26 159 C-26.31638428 159.96832764 -26.63276855 160.93665527 -26.95874023 161.93432617 C-27.71337891 164.24397786 -28.46801758 166.55362956 -29.22265625 168.86328125 C-30.29709844 172.0006097 -30.29709844 172.0006097 -29 175 C-26.35228145 176.15232934 -23.7888775 177.14113993 -21.0625 178.0625 C-13.23905836 180.76094164 -13.23905836 180.76094164 -11 183 C-10.953125 185.09375 -10.953125 185.09375 -11.25 187.5 C-11.33765625 188.2940625 -11.4253125 189.088125 -11.515625 189.90625 C-12 192 -12 192 -14 194 C-14.19256486 196.33987621 -14.28866891 198.68792745 -14.33984375 201.03515625 C-14.722325 210.25617053 -16.97500187 218.62386524 -19.5625 227.4375 C-19.99306361 228.94552835 -20.42210701 230.4539916 -20.84960938 231.96289062 C-21.44549401 234.0654846 -22.04346934 236.1671837 -22.65345764 238.26573181 C-23.60097671 241.08662411 -23.60097671 241.08662411 -24 244 C-19.03926578 245.32286246 -14.08888488 245.08893197 -9 245 C-9.99 243.948125 -9.99 243.948125 -11 242.875 C-13.40239095 239.42156301 -13.2991464 238.12822035 -13 234 C-12.48359512 231.77506407 -11.89315063 229.56665945 -11.25 227.375 C-9.24465599 220.30665874 -7.76129938 213.183307 -6.39550781 205.96630859 C-5.6953427 202.30622114 -4.96210133 198.7267031 -3.875 195.16015625 C-2.3575716 189.67980099 -3.07071236 185.7258199 -5.75 180.75 C-9.24977807 176.47249347 -12.69720972 173.67456535 -18 172 C-18.99 172 -19.98 172 -21 172 C-20.67 169.36 -20.34 166.72 -20 164 C-12.08425229 170.00092321 -5.12436924 176.70234753 1.80834961 183.79467773 C5.76679973 187.83124598 9.8184138 191.64388846 14.10473633 195.32958984 C17.04177972 197.91818329 19.76525102 200.70111248 22.5 203.5 C25.8877966 206.93037996 29.25222089 210.32284475 32.9375 213.4375 C37.50827495 217.30955776 41.64195196 221.61424684 45.84936523 225.87109375 C49.54305674 229.59223466 53.30848201 233.12510537 57.3515625 236.46875 C59.15283031 238.1419656 60.44314845 239.94398292 61.875 241.9375 C63.77528981 244.30230509 64.55626681 244.92515344 67.59375 245.4375 C70.1015256 245.4375 72.51276858 245.30967506 75 245 C71.33090512 241.27644731 67.55325121 237.7056624 63.6875 234.1875 C63.13771484 233.68541016 62.58792969 233.18332031 62.02148438 232.66601562 C60.68194761 231.44296032 59.34111008 230.22132992 58 229 C60.5265505 224.42939997 63.68373853 220.56745278 67 216.5625 C71.20501764 211.43981115 75.36779588 206.29334728 79.4375 201.0625 C83.53891637 195.80208619 87.74592976 190.63759905 92 185.5 C96.49694618 180.06665268 100.94981884 174.60444118 105.3125 169.0625 C106.00569336 168.18464844 106.00569336 168.18464844 106.71289062 167.2890625 C109.07428423 164.2867867 109.07428423 164.2867867 111 161 C108.36147359 160.1204912 106.61967723 159.82801808 103.89819336 159.70288086 C103.06236221 159.66292999 102.22653107 159.62297913 101.3653717 159.58181763 C100.44944748 159.54321625 99.53352325 159.50461487 98.58984375 159.46484375 C97.61949692 159.42173065 96.64915009 159.37861755 95.6493988 159.334198 C92.41235623 159.19466193 89.17504964 159.06470945 85.9375 158.9375 C84.26521332 158.87071548 84.26521332 158.87071548 82.55914307 158.80258179 C63.83043715 158.07399411 45.1170903 157.80651344 26.375 157.8125 C24.58943192 157.8112764 24.58943192 157.8112764 22.76779175 157.81002808 C6.49020405 157.81129467 -9.74101263 158.2237877 -26 159 Z M-50 160 C-50.33 160.66 -50.66 161.32 -51 162 C-52.01320313 161.96519531 -53.02640625 161.93039063 -54.0703125 161.89453125 C-55.4218583 161.86637405 -56.77342219 161.83907597 -58.125 161.8125 C-58.79015625 161.78736328 -59.4553125 161.76222656 -60.140625 161.73632812 C-64.89195646 161.6664556 -67.93006838 162.60592258 -72 165 C-73.33333333 165.66666667 -74.66666667 166.33333333 -76 167 C-76.55647217 166.34789551 -77.11294434 165.69579102 -77.6862793 165.02392578 C-81.17869272 161.96893926 -83.76695511 162.57362293 -88.24853516 162.72949219 C-96.08977585 163.29490249 -103.88488097 164.17251458 -111.6875 165.125 C-112.60674255 165.23570831 -113.52598511 165.34641663 -114.4730835 165.46047974 C-171.36978683 170.54011475 -171.36978683 170.54011475 -221 195 C-223.53604144 198.80406216 -223.60198813 200.48508904 -223 205 C-215.78315538 217.4039517 -196.37457939 222.22681014 -183.40429688 225.69384766 C-154.13259944 233.27475202 -120.33426282 240.76046898 -90 240 C-87.73982348 232.97537443 -85.67964242 225.94121164 -83.88671875 218.78515625 C-83.70698517 218.07507416 -83.52725159 217.36499207 -83.34207153 216.63339233 C-82.60351031 213.71387296 -81.86563789 210.79451883 -81.15356445 207.8684082 C-78.88425118 198.58278053 -76.08549287 190.38318123 -71.49462891 181.9753418 C-69.50914794 178.02286605 -68.79359847 174.32871893 -68 170 C-66 168 -66 168 -64.1171875 167.734375 C-58.73264454 167.77189795 -54.19129494 168.5921912 -49 170 C-47.68 170 -46.36 170 -45 170 C-44.01 166.7 -43.02 163.4 -42 160 C-44.64 160 -47.28 160 -50 160 Z M217.8125 178.25 C204.36615936 185.22642533 191.70840856 186.68902895 176.64135742 185.41381836 C170.88989007 185.06575396 170.88989007 185.06575396 165.96777344 187.65014648 C164.10412044 190.00636621 162.55470929 192.43016813 161 195 C159.79054233 196.7188159 158.57150875 198.43092732 157.34375 200.13671875 C156.05958017 201.98495386 154.77843892 203.83529615 153.5 205.6875 C152.81873047 206.67121582 152.13746094 207.65493164 151.43554688 208.66845703 C149.28628847 211.77618187 147.14226151 214.88744842 145 218 C144.27425781 219.05364746 143.54851562 220.10729492 142.80078125 221.19287109 C140.69682605 224.2510663 138.59729364 227.31223332 136.5 230.375 C135.84708984 231.32592529 135.19417969 232.27685059 134.52148438 233.2565918 C133.62913086 234.56430542 133.62913086 234.56430542 132.71875 235.8984375 C132.19216797 236.66849121 131.66558594 237.43854492 131.12304688 238.23193359 C129.91063894 239.79158762 129.91063894 239.79158762 130 241 C140.95961603 241.43045084 151.69916722 240.13871611 162.5625 238.875 C164.0075592 238.70893753 164.0075592 238.70893753 165.48181152 238.53952026 C225.29964437 234.05288003 225.29964437 234.05288003 276.6875 208.5625 C278.69002553 205.93309692 279.03591737 204.79167926 279.625 201.375 C278.72594325 196.52009353 277.00777745 194.46092753 273.03515625 191.5703125 C259.77820888 183.0558671 232.52597732 170.03943118 217.8125 178.25 Z M-70.81958008 200.171875 C-73.42572007 204.20802313 -74.40401466 208.96402049 -75.625 213.5625 C-75.91117188 214.58408203 -76.19734375 215.60566406 -76.4921875 216.65820312 C-77.35483106 219.76568048 -78.18405462 222.87995265 -79 226 C-79.2897168 227.10456543 -79.57943359 228.20913086 -79.87792969 229.34716797 C-81.44618279 235.10305927 -81.44618279 235.10305927 -82 241 C-75.62376412 241.9624507 -69.44120887 242.08640895 -63 242 C-58.94441969 228.06413523 -58.94441969 228.06413523 -55.125 214.0625 C-54.90070313 213.20785156 -54.67640625 212.35320312 -54.4453125 211.47265625 C-53.68395406 207.24511334 -53.46254132 204.05154959 -55.4375 200.1875 C-58.55262438 197.52824748 -60.71746978 197.12029127 -64.68359375 196.5546875 C-67.42508009 197.0817186 -68.94561745 198.11106034 -70.81958008 200.171875 Z M-40 209 C-41.07303589 211.5037504 -41.86184823 213.71262275 -42.5625 216.3125 C-42.76447998 217.00947998 -42.96645996 217.70645996 -43.17456055 218.42456055 C-43.80197906 220.61154111 -44.40251314 222.80467367 -45 225 C-45.40059723 226.42720815 -45.80162918 227.85429437 -46.203125 229.28125 C-48.23133408 236.04140874 -48.23133408 236.04140874 -49 243 C-44.64667264 243.84023188 -40.55557481 244.10770995 -36.125 244.0625 C-34.97257813 244.05347656 -33.82015625 244.04445313 -32.6328125 244.03515625 C-31.32957031 244.01775391 -31.32957031 244.01775391 -30 244 C-28.81283452 240.19358301 -27.65410259 236.37905934 -26.5 232.5625 C-26.16613281 231.49322266 -25.83226562 230.42394531 -25.48828125 229.32226562 C-23.59120922 222.99223955 -22.41084203 217.61313271 -23 211 C-25.53972428 207.30585559 -27.22087683 206.23651953 -31.5 204.9375 C-35.89580635 205.01599654 -36.93192466 205.9171979 -40 209 Z M118 241 C118 241.33 118 241.66 118 242 C121.96 242 125.92 242 130 242 C130 241.67 130 241.34 130 241 C126.04 241 122.08 241 118 241 Z M104 242 C104 242.33 104 242.66 104 243 C107.96 243 111.92 243 116 243 C116 242.67 116 242.34 116 242 C112.04 242 108.08 242 104 242 Z M88 243 C88 243.33 88 243.66 88 244 C91.63 244 95.26 244 99 244 C99 243.67 99 243.34 99 243 C95.37 243 91.74 243 88 243 Z " fill="#008BFE" transform="translate(324,15)"/>
<path d="M0 0 C1.7311719 0.2577051 3.45990841 0.53179489 5.1875 0.8125 C6.15042969 0.96332031 7.11335937 1.11414063 8.10546875 1.26953125 C11.18644418 2.04705137 13.36930001 3.2445969 16 5 C15.71171915 19.45728462 14.90101745 31.54238028 7.3125 44.2421875 C1.2371786 55.13743874 -1.33143857 67.32554929 -4.4375 79.3125 C-5.08759764 81.76550025 -5.7393838 84.21805359 -6.39282227 86.67016602 C-7.9892881 92.67613867 -9.56556053 98.68718369 -11.13574219 104.70007324 C-12.39943737 109.5251399 -13.68276656 114.34489679 -14.96875 119.1640625 C-16.99670548 126.77149392 -19.00750398 134.38318975 -21 142 C-20.37174316 141.96970703 -19.74348633 141.93941406 -19.09619141 141.90820312 C26.26028188 139.81023425 71.72260225 140.79059304 117 144 C116.65066406 142.9378125 116.30132812 141.875625 115.94140625 140.78125 C115.48139834 139.35428669 115.02178397 137.92719648 114.5625 136.5 C114.21735352 135.45585937 114.21735352 135.45585937 113.86523438 134.390625 C107.79668319 115.3934213 111.40319156 95.79495054 120.33984375 78.390625 C124.03478903 71.79908826 128.72715852 66.38212317 134 61 C134.59167969 60.37222656 135.18335938 59.74445313 135.79296875 59.09765625 C147.25439197 47.93984689 163.65830233 43.21698316 179.15234375 41.91796875 C182.08641714 42.00248938 183.59621931 42.35089464 186 44 C186.9375 46.25 186.9375 46.25 187 49 C184.68524205 54.53888509 181.14099372 59.1081964 177.5625 63.875 C176.94866455 64.70128906 176.3348291 65.52757813 175.70239258 66.37890625 C172.63671994 70.49959938 169.54771747 74.60222358 166.4453125 78.6953125 C165.89544678 79.42250488 165.34558105 80.14969727 164.77905273 80.89892578 C163.73836158 82.27278497 162.69375491 83.6436892 161.64477539 85.01123047 C159.6351111 87.65956072 158.05923577 89.8222927 157 93 C157.94703467 95.55445943 158.95941791 97.9469587 160.11328125 100.40625 C160.44289352 101.12735962 160.7725058 101.84846924 161.11210632 102.59143066 C161.81132458 104.11659269 162.51521486 105.63962012 163.22338867 107.16064453 C164.30639175 109.48687979 165.37611617 111.81884223 166.44335938 114.15234375 C167.12423258 115.6331656 167.80584883 117.11364607 168.48828125 118.59375 C168.80920242 119.2906897 169.1301236 119.98762939 169.46076965 120.70568848 C170.82388777 123.62961314 172.20637385 126.30956078 174 129 C176.81567361 129.68061673 179.47352436 130.17351697 182.33203125 130.5625 C183.16079269 130.68109375 183.98955414 130.7996875 184.84342957 130.921875 C186.59849074 131.16747401 188.35459333 131.40572566 190.11157227 131.63720703 C192.79636067 131.99783214 195.47223745 132.40195413 198.15039062 132.80859375 C199.85640389 133.04176322 201.56277692 133.27231839 203.26953125 133.5 C204.06865433 133.62576416 204.8677774 133.75152832 205.69111633 133.88110352 C209.91653701 134.38996798 211.35925028 134.4970548 214.84790039 131.79077148 C215.55809326 130.86981689 216.26828613 129.9488623 217 129 C217.55381348 128.31043213 218.10762695 127.62086426 218.67822266 126.91040039 C219.1685498 126.22969482 219.65887695 125.54898926 220.1640625 124.84765625 C220.72343506 124.07744141 221.28280762 123.30722656 221.85913086 122.51367188 C222.44186768 121.70478516 223.02460449 120.89589844 223.625 120.0625 C224.86723127 118.36496389 226.11073441 116.66835782 227.35546875 114.97265625 C229.98430503 111.3864346 229.98430503 111.3864346 232.60791016 107.79638672 C234.0355266 105.85199442 235.48278918 103.92416449 236.9375 102 C237.34887207 101.431604 237.76024414 100.86320801 238.18408203 100.27758789 C241.35265138 96.14193816 244.22031989 94.68901579 249 93 C252.85454045 95.53588188 254.47978017 97.45614579 255.625 101.93286133 C256.32637992 105.79912681 256.3384268 109.64266886 256.3125 113.5625 C256.30758545 114.44292969 256.3026709 115.32335937 256.29760742 116.23046875 C255.99643088 133.18284673 250.68163523 150.95978568 238.6796875 163.40625 C236.18282573 165.69177864 233.6165458 167.85309063 231 170 C230.21753906 170.70125 229.43507813 171.4025 228.62890625 172.125 C217.27256216 181.97089439 201.99896695 187.71741819 186.9453125 186.6484375 C176.15924739 185.44337924 176.15924739 185.44337924 166.00732422 188.15283203 C162.52136901 191.42668166 160.39334663 195.49773494 158.23095703 199.71582031 C155.59684142 204.60371909 152.21747789 209.05979587 148.98022461 213.56176758 C146.00653409 217.77580734 143.56696457 221.80052412 141.5390625 226.55078125 C138.66619276 232.63073806 135.94562023 237.53642237 130 241 C117.50764155 244.81144848 103.3483484 244.1213505 90.41827393 244.00164795 C88.11375714 244.00007752 85.82163316 244.06161726 83.51904297 244.15087891 C82.83434433 244.17136292 82.14964569 244.19184692 81.44419861 244.21295166 C79.6388056 244.2690065 77.8338828 244.33968716 76.02905273 244.41162109 C70.277734 243.63006847 67.46170751 239.28360184 64 235 C62.67570258 233.77927892 61.3240682 232.58700087 59.9375 231.4375 C58.968125 230.633125 57.99875 229.82875 57 229 C59.5265505 224.42939997 62.68373853 220.56745278 66 216.5625 C70.20501764 211.43981115 74.36779588 206.29334728 78.4375 201.0625 C83.11082374 195.06856655 87.93100562 189.20426358 92.77978516 183.35180664 C97.61730723 177.49949006 102.32498596 171.55408461 106.98828125 165.5625 C109 163 109 163 110 162 C106.74852451 160.37426225 103.14744072 160.62903769 99.56640625 160.46484375 C98.66186707 160.42177597 97.75732788 160.37870819 96.82537842 160.33433533 C93.73806448 160.19339581 90.65044173 160.06391774 87.5625 159.9375 C86.49373627 159.89264465 85.42497253 159.84778931 84.32382202 159.80157471 C47.57817381 158.31759972 10.76678269 158.82864225 -26 159 C-26.99 163.95 -27.98 168.9 -29 174 C-27.87980469 174.39832031 -26.75960937 174.79664063 -25.60546875 175.20703125 C-24.13265281 175.74174786 -22.66000526 176.27692844 -21.1875 176.8125 C-20.44951172 177.07353516 -19.71152344 177.33457031 -18.95117188 177.60351562 C-18.23896484 177.86455078 -17.52675781 178.12558594 -16.79296875 178.39453125 C-16.1383667 178.63018799 -15.48376465 178.86584473 -14.80932617 179.10864258 C-12.73475537 180.13067172 -11.4717828 181.22199598 -10 183 C-9.85546875 185.19140625 -9.85546875 185.19140625 -10.1875 187.5625 C-10.28417969 188.34753906 -10.38085938 189.13257813 -10.48046875 189.94140625 C-11 192 -11 192 -13 194 C-13.19419685 196.34110974 -13.2915531 198.69049215 -13.34375 201.0390625 C-13.72759305 210.23105898 -15.94013802 218.5820022 -18.5 227.375 C-18.92200548 228.8745976 -19.34258453 230.37459736 -19.76171875 231.875 C-22.75855514 242.51711029 -22.75855514 242.51711029 -24 245 C-25.98 245 -27.96 245 -30 245 C-29.43325287 239.2087563 -28.22647175 234.08399449 -26.4375 228.5625 C-24.59438179 222.54869843 -23.03372698 217.33445645 -24 211 C-26.11310538 207.6190314 -27.62834973 207.11487372 -31.4375 205.9375 C-35.08137822 205.64071707 -35.08137822 205.64071707 -37.57128906 208.03808594 C-40.29534197 211.36018183 -41.40036694 214.37113614 -42.421875 218.453125 C-42.61219299 219.15395203 -42.80251099 219.85477905 -42.99859619 220.57684326 C-43.59840379 222.79731401 -44.17493448 225.02300697 -44.75 227.25 C-45.34403928 229.48977302 -45.94277678 231.72821612 -46.54425049 233.96600342 C-46.9157852 235.35459383 -47.28211379 236.74458957 -47.64276123 238.13604736 C-48.89147777 242.89147777 -48.89147777 242.89147777 -50 244 C-52.19050021 243.90982004 -54.378466 243.75333792 -56.5625 243.5625 C-57.76003906 243.46066406 -58.95757812 243.35882813 -60.19140625 243.25390625 C-61.11824219 243.17011719 -62.04507813 243.08632813 -63 243 C-61.55459592 234.21663916 -59.41723114 225.73594553 -57.03515625 217.16601562 C-54.60913301 208.93786026 -54.60913301 208.93786026 -55.9375 200.6875 C-58.74320257 198.39192517 -61.21468922 198.1655243 -64.74609375 197.6875 C-67.94901201 198.13157879 -68.92237999 199.5748658 -71 202 C-72.0989348 204.4252947 -72.0989348 204.4252947 -72.78125 207.11328125 C-73.06411865 208.10779297 -73.3469873 209.10230469 -73.63842773 210.12695312 C-73.92274658 211.17818359 -74.20706543 212.22941406 -74.5 213.3125 C-74.80043213 214.38306641 -75.10086426 215.45363281 -75.41040039 216.55664062 C-76.28842225 219.70057879 -77.14754542 222.84904491 -78 226 C-78.23315918 226.85513184 -78.46631836 227.71026367 -78.70654297 228.59130859 C-79.83058952 232.72090135 -80.9307461 236.85581097 -82 241 C-84.64 241 -87.28 241 -90 241 C-88.36764257 232.16182164 -86.2074827 223.47770336 -83.96118164 214.77929688 C-83.5309996 213.10195931 -83.10741935 211.42291385 -82.69067383 209.7421875 C-80.22903469 199.82177207 -77.4131512 190.86733257 -72.46655273 181.89233398 C-71.07259534 179.14317247 -70.32662922 176.82411946 -69.75 173.8125 C-68.83105326 169.14118741 -68.83105326 169.14118741 -66 167 C-58.58806666 166.29410159 -52.10710038 167.97970751 -45 170 C-44.34 167.03 -43.68 164.06 -43 161 C-45.31 160.67 -47.62 160.34 -50 160 C-50.33 160.99 -50.66 161.98 -51 163 C-52.01320313 162.96519531 -53.02640625 162.93039063 -54.0703125 162.89453125 C-55.4218583 162.86637405 -56.77342219 162.83907597 -58.125 162.8125 C-58.79015625 162.78736328 -59.4553125 162.76222656 -60.140625 162.73632812 C-64.90881982 162.66620761 -67.9143 163.60992337 -72 166 C-73.33333333 166.66666667 -74.66666667 167.33333333 -76 168 C-77.051875 166.82244141 -77.051875 166.82244141 -78.125 165.62109375 C-83.47170242 159.68189077 -88.86889204 154.14106524 -95 149 C-101.35810953 143.46690468 -107.37517014 137.66816388 -113.30102539 131.68188477 C-118.22356796 126.72849828 -123.17401435 121.88399043 -129 118 C-129.23332031 118.71542969 -129.46664062 119.43085938 -129.70703125 120.16796875 C-133.12228616 129.49656255 -138.39943308 135.81013738 -145 143 C-146.68777545 144.87475205 -148.3753012 146.74972896 -150.0625 148.625 C-150.77535156 149.40101563 -151.48820312 150.17703125 -152.22265625 150.9765625 C-154.14759006 153.07800791 -154.14759006 153.07800791 -156 156 C-160.49873994 155.50457926 -162.56992233 153.96566369 -165.8125 150.875 C-166.68648437 150.05644531 -167.56046875 149.23789063 -168.4609375 148.39453125 C-169.71777344 147.20923828 -169.71777344 147.20923828 -171 146 C-172.30592721 144.84668114 -173.61791506 143.70016685 -174.9375 142.5625 C-178.16559512 139.75177475 -181.33738443 136.884201 -184.5 134 C-192.41001432 126.57603146 -192.41001432 126.57603146 -201 120 C-198.61443205 114.22539744 -193.58354552 110.134306 -189.25439453 105.77392578 C-187.6506694 104.1509771 -186.06965712 102.50797151 -184.48828125 100.86328125 C-178.58906129 94.84658014 -173.28955771 90.73427972 -165.49560547 87.24902344 C-162.21862723 85.60893141 -160.61748569 83.68555252 -158.75 80.5625 C-152.8955502 71.71497771 -146.39433514 67.50101522 -137.01953125 62.6796875 C-134.50272615 61.27965361 -132.68139185 60.02855939 -130.625 58.0625 C-117.18920139 45.71877369 -97.73411237 41.59797756 -80 42 C-63.05306921 42.94693079 -63.05306921 42.94693079 -58 48 C-57.625 50.375 -57.625 50.375 -58 53 C-61.7095857 55.78218927 -65.10354197 56.56232581 -69.625 57.3125 C-83.52159887 60.10637119 -93.30022281 67.63509668 -101.23828125 79.12890625 C-103.81866885 83.33419424 -105.93548073 86.98276485 -106 92 C-104.84057526 94.04301321 -104.84057526 94.04301321 -103.03125 95.828125 C-102.38406006 96.51801514 -101.73687012 97.20790527 -101.07006836 97.91870117 C-97.79900553 101.20751007 -94.46875983 104.41397679 -91.0625 107.5625 C-90.32741211 108.24795898 -89.59232422 108.93341797 -88.83496094 109.63964844 C-87.31010193 111.06150286 -85.78389249 112.48191036 -84.25634766 113.90087891 C-81.41339924 116.54572531 -78.5836438 119.20434558 -75.75732422 121.86694336 C-74.42461764 123.11714596 -73.08642069 124.36152279 -71.74267578 125.59985352 C-68.58286447 128.51765503 -65.53409754 131.46047029 -62.63671875 134.640625 C-62.09499023 135.20813477 -61.55326172 135.77564453 -60.99511719 136.36035156 C-60.00419364 137.40346167 -59.04320869 138.4764965 -58.12597656 139.58496094 C-56.41708324 141.33739294 -55.30650587 142.09766924 -53 143 C-50.36397153 142.98305989 -47.87816651 142.8711411 -45.26586914 142.625 C-44.56734077 142.56828125 -43.86881241 142.5115625 -43.14911652 142.453125 C-41.43188185 142.31222746 -39.71579399 142.15747376 -38 142 C-35.03196265 130.96070478 -32.06738313 119.92048729 -29.10714149 108.87909889 C-27.73228723 103.75146578 -26.35627075 98.62415062 -24.97753906 93.49755859 C-23.64554888 88.54459305 -22.31668895 83.59079717 -20.98994064 78.63642502 C-20.48473496 76.75203294 -19.97842658 74.86793612 -19.47096634 72.98414993 C-18.75712878 70.33348262 -18.04731876 67.68176596 -17.33837891 65.02978516 C-17.13050247 64.2615744 -16.92262604 63.49336365 -16.70845032 62.70187378 C-14.33481463 53.78461792 -12.82300662 45.35571103 -12.6875 36.125 C-12.39933489 27.77129373 -10.962614 21.44369515 -7 14 C-6.36705299 12.72334957 -5.73838848 11.44456989 -5.11328125 10.1640625 C-3.44342247 6.7576856 -1.73241365 3.37496147 0 0 Z " fill="#0C82E2" transform="translate(324,15)"/>
<path d="M0 0 C4.04288318 1.64637893 6.93472101 4.487736 10.0625 7.4375 C10.63250732 7.96883545 11.20251465 8.5001709 11.78979492 9.04760742 C16.47907343 13.44498697 21.00791609 17.98714391 25.52734375 22.55859375 C27.58657141 24.59179642 29.67155593 26.50276256 31.875 28.375 C35.61543247 31.56129433 39.04803498 35.00880254 42.5 38.5 C45.89005591 41.92845382 49.25194033 45.32260763 52.9375 48.4375 C57.50800659 52.30933043 61.63973815 56.61481129 65.84936523 60.86889648 C69.54587331 64.58937867 73.31732124 68.14190062 77.3125 71.54296875 C80.03911405 73.89719801 82.54554833 76.36146446 85 79 C85 79.66 85 80.32 85 81 C75.43805415 81.11590588 65.87635051 81.20472098 56.31385517 81.25906086 C51.87345358 81.2851429 47.43353297 81.32051482 42.9934082 81.37719727 C38.70750904 81.43156779 34.42207217 81.46143102 30.13585472 81.47438622 C28.50154531 81.48361715 26.8672609 81.50164355 25.23314857 81.52865028 C22.94174377 81.56501015 20.65224308 81.56994283 18.3605957 81.56762695 C17.05709671 81.57873001 15.75359772 81.58983307 14.41059875 81.60127258 C10.12112966 80.84505928 8.64789392 79.39029518 6 76 C5.34340188 71.48892771 6.47976563 67.70356791 7.75 63.375 C9.75534401 56.30665874 11.23870062 49.183307 12.60449219 41.96630859 C13.3046573 38.30622114 14.03789867 34.7267031 15.125 31.16015625 C16.63333288 25.71265045 15.88268776 21.76537551 13.375 16.75 C9.45053995 12.20588836 4.61956847 10.04347944 -1 8 C-0.67 5.36 -0.34 2.72 0 0 Z " fill="#0C82E2" transform="translate(304,179)"/>
<path d="M0 0 C0.77241028 0.03158203 1.54482056 0.06316406 2.34063721 0.09570312 C7.03053297 0.2914603 11.71857601 0.51052818 16.40597534 0.75909424 C17.87346325 0.83574517 19.34118568 0.90804287 20.80911255 0.97576904 C22.82399727 1.07095587 24.83785085 1.1872721 26.8515625 1.3046875 C28.56593506 1.3972583 28.56593506 1.3972583 30.31494141 1.49169922 C31.20101074 1.65943848 32.08708008 1.82717773 33 2 C35 5 35 5 35.0625 7.6875 C33.51885584 12.50003767 30.95571588 15.84671828 27 19 C23.66368571 19.95286015 20.63178484 19.6665 17.203125 19.34375 C16.2166951 19.28794769 15.2302652 19.23214539 14.21394348 19.1746521 C12.04157627 19.04961342 9.87018198 18.90672927 7.69998169 18.74847412 C1.64232809 18.3121906 -4.42238114 18.02211531 -10.48828125 17.7265625 C-11.14947527 17.69303806 -11.81066929 17.65951363 -12.49189949 17.6249733 C-31.67968367 16.66408813 -50.88331199 16.80506827 -70.08973694 16.86624146 C-72.94641969 16.87502743 -75.80310045 16.88180388 -78.65979004 16.88793945 C-89.43993499 16.91146502 -100.21995463 16.94782962 -111 17 C-110.41556749 12.7148967 -109.73791989 8.68991966 -108.4375 4.5625 C-108.16808594 3.69753906 -107.89867187 2.83257812 -107.62109375 1.94140625 C-107.41613281 1.30074219 -107.21117187 0.66007813 -107 0 C-71.36101983 -1.63937565 -35.64318514 -1.46640453 0 0 Z " fill="#008BFE" transform="translate(409,157)"/>
<path d="M0 0 C0.98484375 0.00902344 1.9696875 0.01804688 2.984375 0.02734375 C4.10585938 0.04474609 4.10585938 0.04474609 5.25 0.0625 C4.70018084 6.11051071 3.34570426 11.36851106 1.25 17.0625 C-1.39 17.0625 -4.03 17.0625 -6.75 17.0625 C-5.79444444 11.19265873 -5.79444444 11.19265873 -4.875 8.5 C-4.4518166 5.75042135 -4.4518166 5.75042135 -7.1875 3.25 C-8.033125 2.528125 -8.87875 1.80625 -9.75 1.0625 C-6.43929162 0.06140485 -3.44915231 -0.04106134 0 0 Z " fill="#008BFE" transform="translate(280.75,157.9375)"/>
</svg>
